<svg width="8306" height="5886" viewBox="0 0 8306 5886" fill="none" xmlns="http://www.w3.org/2000/svg">
<g id="Group 33">
<path id="sun" d="M4838.25 743.565C4993.92 743.565 5120.12 613.15 5120.12 452.275C5120.12 291.401 4993.92 160.986 4838.25 160.986C4682.58 160.986 4556.39 291.401 4556.39 452.275C4556.39 613.15 4682.58 743.565 4838.25 743.565Z" fill="#FEE1FF"/>
<path id="shadow" d="M7024.75 5066.64C7443.71 4736.86 7643.82 4182.69 7518.55 3654.06C7515.43 3640.92 7512.15 3627.82 7508.69 3614.74C7425.64 3300.95 7220.16 3002.72 6920.7 2902.45C6669.25 2818.27 6394.78 2883 6132.46 2849.53C5617.5 2783.81 5218.26 2353.21 4937.35 1902.38C4656.44 1451.54 4440.55 946.895 4067.28 574.438C3452 -39.4931 2448.32 -171.673 1685.47 227.95C922.609 627.575 436.678 1514.17 457.401 2397.78C478.126 3281.39 985.711 4126.18 1722.85 4574.4C1993.65 4739.05 2306.85 4855.7 2618.54 4814.88C2889 4779.46 3134.74 4629.28 3403.93 4584.7C3827.15 4514.6 4247.67 4712.35 4613.72 4942.79C4979.77 5173.22 5333.35 5446.36 5749.32 5553.19C6153.23 5656.93 6653.62 5358.77 7024.75 5066.64Z" fill="#FEE1FF"/>
<path id="Vector" d="M0 4380.86C91.7063 4493.15 190.897 4598.68 296.847 4696.68L8009.15 4707.59C8115.1 4609.59 8214.29 4504.06 8306 4391.76L0 4380.86Z" fill="#3F3D56"/>
<path id="Vector_2" d="M5229.96 3369.56V4304.54C5229.97 4316.45 5234.55 4327.88 5242.7 4336.3C5250.86 4344.73 5261.91 4349.47 5273.44 4349.48H6614.15C6625.68 4349.47 6636.74 4344.73 6644.89 4336.3C6653.04 4327.88 6657.63 4316.45 6657.63 4304.54V3369.56C6657.61 3357.65 6653.02 3346.25 6644.87 3337.83C6636.72 3329.42 6625.67 3324.69 6614.15 3324.67H5273.44C5261.92 3324.69 5250.88 3329.42 5242.73 3337.83C5234.58 3346.25 5229.98 3357.65 5229.96 3369.56V3369.56Z" fill="#3F3D56"/>
<path id="Vector_3" d="M5261.42 3381.19V4293.01C5261.43 4299.37 5263.88 4305.47 5268.24 4309.98C5272.6 4314.48 5278.5 4317.01 5284.66 4317.02H6603C6609.16 4317.01 6615.07 4314.48 6619.42 4309.98C6623.78 4305.47 6626.23 4299.37 6626.24 4293.01V3381.19C6626.24 3374.82 6623.8 3368.7 6619.44 3364.19C6615.08 3359.68 6609.17 3357.14 6603 3357.13H5284.66C5278.49 3357.14 5272.58 3359.68 5268.23 3364.19C5263.87 3368.7 5261.42 3374.82 5261.42 3381.19V3381.19Z" fill="#6C63FF"/>
<path id="Vector_4" d="M5201.93 4486.89C5204.38 4490.07 5207.51 4492.64 5211.06 4494.39C5214.61 4496.15 5218.5 4497.05 5222.44 4497.03H6658.03C6661.96 4497.03 6665.83 4496.12 6669.38 4494.37C6672.92 4492.62 6676.04 4490.08 6678.51 4486.93C6680.99 4483.78 6682.75 4480.1 6683.67 4476.15C6684.6 4472.21 6684.66 4468.1 6683.85 4464.13L6661.57 4354.74C6660.65 4350.28 6658.66 4346.13 6655.78 4342.67C6652.91 4339.2 6649.25 4336.54 6645.12 4334.91C6642.13 4333.7 6638.95 4333.08 6635.75 4333.08H5244.64C5241.43 4333.08 5238.25 4333.7 5235.27 4334.91C5231.14 4336.54 5227.48 4339.2 5224.6 4342.67C5221.73 4346.13 5219.74 4350.28 5218.82 4354.74L5196.53 4464.13C5195.74 4468.1 5195.81 4472.2 5196.75 4476.14C5197.68 4480.08 5199.45 4483.75 5201.93 4486.89V4486.89Z" fill="#2F2E41"/>
<path id="Vector_5" d="M6586.49 4380.2H6620.4C6623.25 4380.2 6625.55 4377.81 6625.55 4374.87V4358.11C6625.55 4355.17 6623.25 4352.78 6620.4 4352.78H6586.49C6583.65 4352.78 6581.34 4355.17 6581.34 4358.11V4374.87C6581.34 4377.81 6583.65 4380.2 6586.49 4380.2Z" fill="#3F3D56"/>
<path id="Vector_6" d="M6498.07 4380.2H6531.98C6534.82 4380.2 6537.13 4377.81 6537.13 4374.87V4358.11C6537.13 4355.17 6534.82 4352.78 6531.98 4352.78H6498.07C6495.22 4352.78 6492.92 4355.17 6492.92 4358.11V4374.87C6492.92 4377.81 6495.22 4380.2 6498.07 4380.2Z" fill="#3F3D56"/>
<path id="Vector_7" d="M6409.63 4380.2H6443.54C6446.39 4380.2 6448.69 4377.81 6448.69 4374.87V4358.11C6448.69 4355.17 6446.39 4352.78 6443.54 4352.78H6409.63C6406.79 4352.78 6404.48 4355.17 6404.48 4358.11V4374.87C6404.48 4377.81 6406.79 4380.2 6409.63 4380.2Z" fill="#3F3D56"/>
<path id="Vector_8" d="M6321.2 4380.2H6355.11C6357.95 4380.2 6360.26 4377.81 6360.26 4374.87V4358.11C6360.26 4355.17 6357.95 4352.78 6355.11 4352.78H6321.2C6318.35 4352.78 6316.05 4355.17 6316.05 4358.11V4374.87C6316.05 4377.81 6318.35 4380.2 6321.2 4380.2Z" fill="#3F3D56"/>
<path id="Vector_9" d="M6232.76 4380.2H6266.67C6269.52 4380.2 6271.82 4377.81 6271.82 4374.87V4358.11C6271.82 4355.17 6269.52 4352.78 6266.67 4352.78H6232.76C6229.92 4352.78 6227.61 4355.17 6227.61 4358.11V4374.87C6227.61 4377.81 6229.92 4380.2 6232.76 4380.2Z" fill="#3F3D56"/>
<path id="Vector_10" d="M6144.33 4380.2H6178.24C6181.08 4380.2 6183.39 4377.81 6183.39 4374.87V4358.11C6183.39 4355.17 6181.08 4352.78 6178.24 4352.78H6144.33C6141.48 4352.78 6139.18 4355.17 6139.18 4358.11V4374.87C6139.18 4377.81 6141.48 4380.2 6144.33 4380.2Z" fill="#3F3D56"/>
<path id="Vector_11" d="M6055.92 4380.2H6089.83C6092.67 4380.2 6094.98 4377.81 6094.98 4374.87V4358.11C6094.98 4355.17 6092.67 4352.78 6089.83 4352.78H6055.92C6053.07 4352.78 6050.77 4355.17 6050.77 4358.11V4374.87C6050.77 4377.81 6053.07 4380.2 6055.92 4380.2Z" fill="#3F3D56"/>
<path id="Vector_12" d="M5967.47 4380.2H6001.38C6004.23 4380.2 6006.54 4377.81 6006.54 4374.87V4358.11C6006.54 4355.17 6004.23 4352.78 6001.38 4352.78H5967.47C5964.63 4352.78 5962.32 4355.17 5962.32 4358.11V4374.87C5962.32 4377.81 5964.63 4380.2 5967.47 4380.2Z" fill="#3F3D56"/>
<path id="Vector_13" d="M5879.06 4380.2H5912.97C5915.82 4380.2 5918.12 4377.81 5918.12 4374.87V4358.11C5918.12 4355.17 5915.82 4352.78 5912.97 4352.78H5879.06C5876.22 4352.78 5873.91 4355.17 5873.91 4358.11V4374.87C5873.91 4377.81 5876.22 4380.2 5879.06 4380.2Z" fill="#3F3D56"/>
<path id="Vector_14" d="M5790.61 4380.2H5824.52C5827.37 4380.2 5829.68 4377.81 5829.68 4374.87V4358.11C5829.68 4355.17 5827.37 4352.78 5824.52 4352.78H5790.61C5787.77 4352.78 5785.46 4355.17 5785.46 4358.11V4374.87C5785.46 4377.81 5787.77 4380.2 5790.61 4380.2Z" fill="#3F3D56"/>
<path id="Vector_15" d="M5702.19 4380.2H5736.09C5738.94 4380.2 5741.25 4377.81 5741.25 4374.87V4358.11C5741.25 4355.17 5738.94 4352.78 5736.09 4352.78H5702.19C5699.34 4352.78 5697.03 4355.17 5697.03 4358.11V4374.87C5697.03 4377.81 5699.34 4380.2 5702.19 4380.2Z" fill="#3F3D56"/>
<path id="Vector_16" d="M5613.75 4380.2H5647.65C5650.5 4380.2 5652.81 4377.81 5652.81 4374.87V4358.11C5652.81 4355.17 5650.5 4352.78 5647.65 4352.78H5613.75C5610.9 4352.78 5608.59 4355.17 5608.59 4358.11V4374.87C5608.59 4377.81 5610.9 4380.2 5613.75 4380.2Z" fill="#3F3D56"/>
<path id="Vector_17" d="M5525.32 4380.2H5559.23C5562.07 4380.2 5564.38 4377.81 5564.38 4374.87V4358.11C5564.38 4355.17 5562.07 4352.78 5559.23 4352.78H5525.32C5522.47 4352.78 5520.16 4355.17 5520.16 4358.11V4374.87C5520.16 4377.81 5522.47 4380.2 5525.32 4380.2Z" fill="#3F3D56"/>
<path id="Vector_18" d="M5436.9 4380.2H5470.81C5473.66 4380.2 5475.96 4377.81 5475.96 4374.87V4358.11C5475.96 4355.17 5473.66 4352.78 5470.81 4352.78H5436.9C5434.06 4352.78 5431.75 4355.17 5431.75 4358.11V4374.87C5431.75 4377.81 5434.06 4380.2 5436.9 4380.2Z" fill="#3F3D56"/>
<path id="Vector_19" d="M5348.46 4380.2H5382.37C5385.21 4380.2 5387.52 4377.81 5387.52 4374.87V4358.11C5387.52 4355.17 5385.21 4352.78 5382.37 4352.78H5348.46C5345.61 4352.78 5343.3 4355.17 5343.3 4358.11V4374.87C5343.3 4377.81 5345.61 4380.2 5348.46 4380.2Z" fill="#3F3D56"/>
<path id="Vector_20" d="M5260 4380.2H5293.91C5296.76 4380.2 5299.07 4377.81 5299.07 4374.87V4358.11C5299.07 4355.17 5296.76 4352.78 5293.91 4352.78H5260C5257.16 4352.78 5254.85 4355.17 5254.85 4358.11V4374.87C5254.85 4377.81 5257.16 4380.2 5260 4380.2Z" fill="#3F3D56"/>
<path id="Vector_21" d="M6587.52 4425.89H6621.43C6624.27 4425.89 6626.58 4423.51 6626.58 4420.56V4403.8C6626.58 4400.86 6624.27 4398.47 6621.43 4398.47H6587.52C6584.67 4398.47 6582.37 4400.86 6582.37 4403.8V4420.56C6582.37 4423.51 6584.67 4425.89 6587.52 4425.89Z" fill="#3F3D56"/>
<path id="Vector_22" d="M6499.11 4425.89H6533.02C6535.86 4425.89 6538.17 4423.51 6538.17 4420.56V4403.8C6538.17 4400.86 6535.86 4398.47 6533.02 4398.47H6499.11C6496.26 4398.47 6493.96 4400.86 6493.96 4403.8V4420.56C6493.96 4423.51 6496.26 4425.89 6499.11 4425.89Z" fill="#3F3D56"/>
<path id="Vector_23" d="M6410.65 4425.89H6444.56C6447.41 4425.89 6449.71 4423.51 6449.71 4420.56V4403.8C6449.71 4400.86 6447.41 4398.47 6444.56 4398.47H6410.65C6407.81 4398.47 6405.5 4400.86 6405.5 4403.8V4420.56C6405.5 4423.51 6407.81 4425.89 6410.65 4425.89Z" fill="#3F3D56"/>
<path id="Vector_24" d="M6322.23 4425.89H6356.14C6358.98 4425.89 6361.29 4423.51 6361.29 4420.56V4403.8C6361.29 4400.86 6358.98 4398.47 6356.14 4398.47H6322.23C6319.38 4398.47 6317.08 4400.86 6317.08 4403.8V4420.56C6317.08 4423.51 6319.38 4425.89 6322.23 4425.89Z" fill="#3F3D56"/>
<path id="Vector_25" d="M6233.8 4425.89H6267.7C6270.55 4425.89 6272.86 4423.51 6272.86 4420.56V4403.8C6272.86 4400.86 6270.55 4398.47 6267.7 4398.47H6233.8C6230.95 4398.47 6228.64 4400.86 6228.64 4403.8V4420.56C6228.64 4423.51 6230.95 4425.89 6233.8 4425.89Z" fill="#3F3D56"/>
<path id="Vector_26" d="M6145.36 4425.89H6179.27C6182.12 4425.89 6184.42 4423.51 6184.42 4420.56V4403.8C6184.42 4400.86 6182.12 4398.47 6179.27 4398.47H6145.36C6142.52 4398.47 6140.21 4400.86 6140.21 4403.8V4420.56C6140.21 4423.51 6142.52 4425.89 6145.36 4425.89Z" fill="#3F3D56"/>
<path id="Vector_27" d="M6056.95 4425.89H6090.86C6093.7 4425.89 6096.01 4423.51 6096.01 4420.56V4403.8C6096.01 4400.86 6093.7 4398.47 6090.86 4398.47H6056.95C6054.1 4398.47 6051.8 4400.86 6051.8 4403.8V4420.56C6051.8 4423.51 6054.1 4425.89 6056.95 4425.89Z" fill="#3F3D56"/>
<path id="Vector_28" d="M5968.51 4425.89H6002.42C6005.26 4425.89 6007.57 4423.51 6007.57 4420.56V4403.8C6007.57 4400.86 6005.26 4398.47 6002.42 4398.47H5968.51C5965.66 4398.47 5963.36 4400.86 5963.36 4403.8V4420.56C5963.36 4423.51 5965.66 4425.89 5968.51 4425.89Z" fill="#3F3D56"/>
<path id="Vector_29" d="M5880.07 4425.89H5913.98C5916.82 4425.89 5919.13 4423.51 5919.13 4420.56V4403.8C5919.13 4400.86 5916.82 4398.47 5913.98 4398.47H5880.07C5877.22 4398.47 5874.91 4400.86 5874.91 4403.8V4420.56C5874.91 4423.51 5877.22 4425.89 5880.07 4425.89Z" fill="#3F3D56"/>
<path id="Vector_30" d="M5791.65 4425.89H5825.56C5828.4 4425.89 5830.71 4423.51 5830.71 4420.56V4403.8C5830.71 4400.86 5828.4 4398.47 5825.56 4398.47H5791.65C5788.8 4398.47 5786.5 4400.86 5786.5 4403.8V4420.56C5786.5 4423.51 5788.8 4425.89 5791.65 4425.89Z" fill="#3F3D56"/>
<path id="Vector_31" d="M5703.22 4425.89H5737.12C5739.97 4425.89 5742.28 4423.51 5742.28 4420.56V4403.8C5742.28 4400.86 5739.97 4398.47 5737.12 4398.47H5703.22C5700.37 4398.47 5698.06 4400.86 5698.06 4403.8V4420.56C5698.06 4423.51 5700.37 4425.89 5703.22 4425.89Z" fill="#3F3D56"/>
<path id="Vector_32" d="M5614.79 4425.89H5648.69C5651.54 4425.89 5653.85 4423.51 5653.85 4420.56V4403.8C5653.85 4400.86 5651.54 4398.47 5648.69 4398.47H5614.79C5611.94 4398.47 5609.63 4400.86 5609.63 4403.8V4420.56C5609.63 4423.51 5611.94 4425.89 5614.79 4425.89Z" fill="#3F3D56"/>
<path id="Vector_33" d="M5526.36 4425.89H5560.27C5563.12 4425.89 5565.42 4423.51 5565.42 4420.56V4403.8C5565.42 4400.86 5563.12 4398.47 5560.27 4398.47H5526.36C5523.52 4398.47 5521.21 4400.86 5521.21 4403.8V4420.56C5521.21 4423.51 5523.52 4425.89 5526.36 4425.89Z" fill="#3F3D56"/>
<path id="Vector_34" d="M5437.93 4425.89H5471.84C5474.69 4425.89 5477 4423.51 5477 4420.56V4403.8C5477 4400.86 5474.69 4398.47 5471.84 4398.47H5437.93C5435.09 4398.47 5432.78 4400.86 5432.78 4403.8V4420.56C5432.78 4423.51 5435.09 4425.89 5437.93 4425.89Z" fill="#3F3D56"/>
<path id="Vector_35" d="M5349.49 4425.89H5383.4C5386.25 4425.89 5388.56 4423.51 5388.56 4420.56V4403.8C5388.56 4400.86 5386.25 4398.47 5383.4 4398.47H5349.49C5346.65 4398.47 5344.34 4400.86 5344.34 4403.8V4420.56C5344.34 4423.51 5346.65 4425.89 5349.49 4425.89Z" fill="#3F3D56"/>
<path id="Vector_36" d="M5261.06 4425.89H5294.97C5297.82 4425.89 5300.12 4423.51 5300.12 4420.56V4403.8C5300.12 4400.86 5297.82 4398.47 5294.97 4398.47H5261.06C5258.22 4398.47 5255.91 4400.86 5255.91 4403.8V4420.56C5255.91 4423.51 5258.22 4425.89 5261.06 4425.89Z" fill="#3F3D56"/>
<path id="Vector_37" d="M5853.57 4480.72H6196.99C6199.83 4480.72 6202.14 4478.34 6202.14 4475.4V4458.63C6202.14 4455.69 6199.83 4453.31 6196.99 4453.31H5853.57C5850.72 4453.31 5848.42 4455.69 5848.42 4458.63V4475.4C5848.42 4478.34 5850.72 4480.72 5853.57 4480.72Z" fill="#3F3D56"/>
<g id="codelines">
<path id="Vector_38" d="M5489.71 3556.61H5459.69C5450.59 3556.61 5443.21 3564.23 5443.21 3573.64C5443.21 3583.05 5450.59 3590.67 5459.69 3590.67H5489.71C5498.81 3590.67 5506.19 3583.05 5506.19 3573.64C5506.19 3564.23 5498.81 3556.61 5489.71 3556.61Z" fill="#F8CAFF"/>
<path id="Vector_39" d="M5833.05 3556.61H5803.03C5793.93 3556.61 5786.55 3564.23 5786.55 3573.64C5786.55 3583.05 5793.93 3590.67 5803.03 3590.67H5833.05C5842.15 3590.67 5849.53 3583.05 5849.53 3573.64C5849.53 3564.23 5842.15 3556.61 5833.05 3556.61Z" fill="#F8CAFF"/>
<path id="Vector_40" d="M5930.33 3556.61H5900.31C5891.21 3556.61 5883.83 3564.23 5883.83 3573.64C5883.83 3583.05 5891.21 3590.67 5900.31 3590.67H5930.33C5939.43 3590.67 5946.81 3583.05 5946.81 3573.64C5946.81 3564.23 5939.43 3556.61 5930.33 3556.61Z" fill="#F8CAFF"/>
<path id="Vector_41" d="M5739.63 3553.77H5553.06C5543.95 3553.77 5536.58 3561.39 5536.58 3570.8C5536.58 3580.2 5543.95 3587.83 5553.06 3587.83H5739.63C5748.73 3587.83 5756.11 3580.2 5756.11 3570.8C5756.11 3561.39 5748.73 3553.77 5739.63 3553.77Z" fill="#F8CAFF"/>
<path id="Vector_42" d="M6197.43 3553.77H6010.85C6001.75 3553.77 5994.38 3561.39 5994.38 3570.8C5994.38 3580.2 6001.75 3587.83 6010.85 3587.83H6197.43C6206.53 3587.83 6213.91 3580.2 6213.91 3570.8C6213.91 3561.39 6206.53 3553.77 6197.43 3553.77Z" fill="#F8CAFF"/>
<path id="Vector_43" d="M5581.28 3633.48H5551.26C5542.16 3633.48 5534.78 3641.11 5534.78 3650.51C5534.78 3659.92 5542.16 3667.54 5551.26 3667.54H5581.28C5590.38 3667.54 5597.76 3659.92 5597.76 3650.51C5597.76 3641.11 5590.38 3633.48 5581.28 3633.48Z" fill="#F8CAFF"/>
<path id="Vector_44" d="M5924.58 3633.48H5894.56C5885.46 3633.48 5878.08 3641.11 5878.08 3650.51C5878.08 3659.92 5885.46 3667.54 5894.56 3667.54H5924.58C5933.68 3667.54 5941.06 3659.92 5941.06 3650.51C5941.06 3641.11 5933.68 3633.48 5924.58 3633.48Z" fill="#F8CAFF"/>
<path id="Vector_45" d="M6021.87 3633.48H5991.85C5982.75 3633.48 5975.37 3641.11 5975.37 3650.51C5975.37 3659.92 5982.75 3667.54 5991.85 3667.54H6021.87C6030.97 3667.54 6038.35 3659.92 6038.35 3650.51C6038.35 3641.11 6030.97 3633.48 6021.87 3633.48Z" fill="#F8CAFF"/>
<path id="Vector_46" d="M5831.2 3630.64H5644.63C5635.53 3630.64 5628.15 3638.27 5628.15 3647.67C5628.15 3657.08 5635.53 3664.7 5644.63 3664.7H5831.2C5840.3 3664.7 5847.68 3657.08 5847.68 3647.67C5847.68 3638.27 5840.3 3630.64 5831.2 3630.64Z" fill="#F8CAFF"/>
<path id="Vector_47" d="M6288.98 3630.64H6102.41C6093.31 3630.64 6085.93 3638.27 6085.93 3647.67C6085.93 3657.08 6093.31 3664.7 6102.41 3664.7H6288.98C6298.08 3664.7 6305.46 3657.08 6305.46 3647.67C6305.46 3638.27 6298.08 3630.64 6288.98 3630.64Z" fill="#F8CAFF"/>
<path id="Vector_48" d="M5672.82 3710.36H5642.81C5633.7 3710.36 5626.33 3717.98 5626.33 3727.39C5626.33 3736.79 5633.7 3744.42 5642.81 3744.42H5672.82C5681.93 3744.42 5689.3 3736.79 5689.3 3727.39C5689.3 3717.98 5681.93 3710.36 5672.82 3710.36Z" fill="#F8CAFF"/>
<path id="Vector_49" d="M6016.15 3710.36H5986.14C5977.03 3710.36 5969.66 3717.98 5969.66 3727.39C5969.66 3736.79 5977.03 3744.42 5986.14 3744.42H6016.15C6025.26 3744.42 6032.63 3736.79 6032.63 3727.39C6032.63 3717.98 6025.26 3710.36 6016.15 3710.36Z" fill="#F8CAFF"/>
<path id="Vector_50" d="M6113.42 3710.36H6083.4C6074.3 3710.36 6066.92 3717.98 6066.92 3727.39C6066.92 3736.79 6074.3 3744.42 6083.4 3744.42H6113.42C6122.52 3744.42 6129.9 3736.79 6129.9 3727.39C6129.9 3717.98 6122.52 3710.36 6113.42 3710.36Z" fill="#F8CAFF"/>
<path id="Vector_51" d="M5922.75 3707.52H5736.17C5727.07 3707.52 5719.7 3715.14 5719.7 3724.55C5719.7 3733.95 5727.07 3741.58 5736.17 3741.58H5922.75C5931.85 3741.58 5939.23 3733.95 5939.23 3724.55C5939.23 3715.14 5931.85 3707.52 5922.75 3707.52Z" fill="#F8CAFF"/>
<path id="Vector_52" d="M6380.55 3707.52H6193.98C6184.88 3707.52 6177.5 3715.14 6177.5 3724.55C6177.5 3733.95 6184.88 3741.58 6193.98 3741.58H6380.55C6389.66 3741.58 6397.03 3733.95 6397.03 3724.55C6397.03 3715.14 6389.66 3707.52 6380.55 3707.52Z" fill="#F8CAFF"/>
<path id="Vector_53" d="M5764.39 3787.24H5734.37C5725.27 3787.24 5717.89 3794.86 5717.89 3804.27C5717.89 3813.67 5725.27 3821.3 5734.37 3821.3H5764.39C5773.49 3821.3 5780.87 3813.67 5780.87 3804.27C5780.87 3794.86 5773.49 3787.24 5764.39 3787.24Z" fill="#F8CAFF"/>
<path id="Vector_54" d="M6107.7 3787.24H6077.68C6068.58 3787.24 6061.2 3794.86 6061.2 3804.27C6061.2 3813.67 6068.58 3821.3 6077.68 3821.3H6107.7C6116.8 3821.3 6124.18 3813.67 6124.18 3804.27C6124.18 3794.86 6116.8 3787.24 6107.7 3787.24Z" fill="#F8CAFF"/>
<path id="Vector_55" d="M6204.96 3787.24H6174.94C6165.84 3787.24 6158.46 3794.86 6158.46 3804.27C6158.46 3813.67 6165.84 3821.3 6174.94 3821.3H6204.96C6214.06 3821.3 6221.44 3813.67 6221.44 3804.27C6221.44 3794.86 6214.06 3787.24 6204.96 3787.24Z" fill="#F8CAFF"/>
<path id="Vector_56" d="M6014.32 3784.39H5827.74C5818.64 3784.39 5811.26 3792.02 5811.26 3801.42C5811.26 3810.83 5818.64 3818.45 5827.74 3818.45H6014.32C6023.42 3818.45 6030.8 3810.83 6030.8 3801.42C6030.8 3792.02 6023.42 3784.39 6014.32 3784.39Z" fill="#F8CAFF"/>
<path id="Vector_57" d="M5833.05 4092.92H5803.03C5793.93 4092.92 5786.55 4100.54 5786.55 4109.95C5786.55 4119.36 5793.93 4126.98 5803.03 4126.98H5833.05C5842.15 4126.98 5849.53 4119.36 5849.53 4109.95C5849.53 4100.54 5842.15 4092.92 5833.05 4092.92Z" fill="#F8CAFF"/>
<path id="Vector_58" d="M5930.33 4092.92H5900.31C5891.21 4092.92 5883.83 4100.54 5883.83 4109.95C5883.83 4119.36 5891.21 4126.98 5900.31 4126.98H5930.33C5939.43 4126.98 5946.81 4119.36 5946.81 4109.95C5946.81 4100.54 5939.43 4092.92 5930.33 4092.92Z" fill="#F8CAFF"/>
<path id="Vector_59" d="M6197.43 4095.76H6010.85C6001.75 4095.76 5994.38 4103.38 5994.38 4112.79C5994.38 4122.2 6001.75 4129.82 6010.85 4129.82H6197.43C6206.53 4129.82 6213.91 4122.2 6213.91 4112.79C6213.91 4103.38 6206.53 4095.76 6197.43 4095.76Z" fill="#F8CAFF"/>
<path id="Vector_60" d="M5489.71 4092.92H5459.69C5450.59 4092.92 5443.21 4100.54 5443.21 4109.95C5443.21 4119.36 5450.59 4126.98 5459.69 4126.98H5489.71C5498.81 4126.98 5506.19 4119.36 5506.19 4109.95C5506.19 4100.54 5498.81 4092.92 5489.71 4092.92Z" fill="#F8CAFF"/>
<path id="Vector_61" d="M5739.63 4095.76H5553.06C5543.95 4095.76 5536.58 4103.38 5536.58 4112.79C5536.58 4122.2 5543.95 4129.82 5553.06 4129.82H5739.63C5748.73 4129.82 5756.11 4122.2 5756.11 4112.79C5756.11 4103.38 5748.73 4095.76 5739.63 4095.76Z" fill="#F8CAFF"/>
<path id="Vector_62" d="M5581.28 4016.05H5551.26C5542.16 4016.05 5534.78 4023.67 5534.78 4033.08C5534.78 4042.48 5542.16 4050.11 5551.26 4050.11H5581.28C5590.38 4050.11 5597.76 4042.48 5597.76 4033.08C5597.76 4023.67 5590.38 4016.05 5581.28 4016.05Z" fill="#F8CAFF"/>
<path id="Vector_63" d="M5924.58 4016.05H5894.56C5885.46 4016.05 5878.08 4023.67 5878.08 4033.08C5878.08 4042.48 5885.46 4050.11 5894.56 4050.11H5924.58C5933.68 4050.11 5941.06 4042.48 5941.06 4033.08C5941.06 4023.67 5933.68 4016.05 5924.58 4016.05Z" fill="#F8CAFF"/>
<path id="Vector_64" d="M6021.87 4016.05H5991.85C5982.75 4016.05 5975.37 4023.67 5975.37 4033.08C5975.37 4042.48 5982.75 4050.11 5991.85 4050.11H6021.87C6030.97 4050.11 6038.35 4042.48 6038.35 4033.08C6038.35 4023.67 6030.97 4016.05 6021.87 4016.05Z" fill="#F8CAFF"/>
<path id="Vector_65" d="M5831.2 4018.88H5644.63C5635.53 4018.88 5628.15 4026.51 5628.15 4035.92C5628.15 4045.32 5635.53 4052.95 5644.63 4052.95H5831.2C5840.3 4052.95 5847.68 4045.32 5847.68 4035.92C5847.68 4026.51 5840.3 4018.88 5831.2 4018.88Z" fill="#F8CAFF"/>
<path id="Vector_66" d="M5672.82 3939.17H5642.81C5633.7 3939.17 5626.33 3946.8 5626.33 3956.2C5626.33 3965.61 5633.7 3973.23 5642.81 3973.23H5672.82C5681.93 3973.23 5689.3 3965.61 5689.3 3956.2C5689.3 3946.8 5681.93 3939.17 5672.82 3939.17Z" fill="#F8CAFF"/>
<path id="Vector_67" d="M6016.15 3939.17H5986.14C5977.03 3939.17 5969.66 3946.8 5969.66 3956.2C5969.66 3965.61 5977.03 3973.23 5986.14 3973.23H6016.15C6025.26 3973.23 6032.63 3965.61 6032.63 3956.2C6032.63 3946.8 6025.26 3939.17 6016.15 3939.17Z" fill="#F8CAFF"/>
<path id="Vector_68" d="M6113.42 3939.17H6083.4C6074.3 3939.17 6066.92 3946.8 6066.92 3956.2C6066.92 3965.61 6074.3 3973.23 6083.4 3973.23H6113.42C6122.52 3973.23 6129.9 3965.61 6129.9 3956.2C6129.9 3946.8 6122.52 3939.17 6113.42 3939.17Z" fill="#F8CAFF"/>
<path id="Vector_69" d="M5922.75 3942.01H5736.17C5727.07 3942.01 5719.7 3949.63 5719.7 3959.04C5719.7 3968.45 5727.07 3976.07 5736.17 3976.07H5922.75C5931.85 3976.07 5939.23 3968.45 5939.23 3959.04C5939.23 3949.63 5931.85 3942.01 5922.75 3942.01Z" fill="#F8CAFF"/>
<path id="Vector_70" d="M5764.39 3862.3H5734.37C5725.27 3862.3 5717.89 3869.92 5717.89 3879.33C5717.89 3888.73 5725.27 3896.36 5734.37 3896.36H5764.39C5773.49 3896.36 5780.87 3888.73 5780.87 3879.33C5780.87 3869.92 5773.49 3862.3 5764.39 3862.3Z" fill="#F8CAFF"/>
<path id="Vector_71" d="M6107.7 3862.3H6077.68C6068.58 3862.3 6061.2 3869.92 6061.2 3879.33C6061.2 3888.73 6068.58 3896.36 6077.68 3896.36H6107.7C6116.8 3896.36 6124.18 3888.73 6124.18 3879.33C6124.18 3869.92 6116.8 3862.3 6107.7 3862.3Z" fill="#F8CAFF"/>
<path id="Vector_72" d="M6204.96 3862.3H6174.94C6165.84 3862.3 6158.46 3869.92 6158.46 3879.33C6158.46 3888.73 6165.84 3896.36 6174.94 3896.36H6204.96C6214.06 3896.36 6221.44 3888.73 6221.44 3879.33C6221.44 3869.92 6214.06 3862.3 6204.96 3862.3Z" fill="#F8CAFF"/>
<path id="Vector_73" d="M6014.32 3865.13H5827.74C5818.64 3865.13 5811.26 3872.76 5811.26 3882.17C5811.26 3891.57 5818.64 3899.2 5827.74 3899.2H6014.32C6023.42 3899.2 6030.8 3891.57 6030.8 3882.17C6030.8 3872.76 6023.42 3865.13 6014.32 3865.13Z" fill="#F8CAFF"/>
</g>
<path id="arm" d="M5330.12 4993.86L5189.2 4763.66L5631.53 4399.25L5814.11 4190.22C5837.83 4163.06 5868.03 4142.81 5901.7 4131.49C5935.36 4120.18 5971.31 4118.19 6005.95 4125.73C6040.59 4133.27 6072.71 4150.07 6099.1 4174.46C6125.49 4198.85 6145.22 4229.97 6156.33 4264.71C6172.79 4316.18 6169.25 4372.25 6146.46 4421.09C6123.67 4469.92 6083.42 4507.69 6034.19 4526.43L5745.48 4636.35L5330.12 4993.86Z" fill="#FFB6B6"/>
<path id="Vector_74" d="M2023.56 3324.72V4443.59H2782.04V3324.72C2782.05 3316.67 2779.56 3308.83 2774.95 3302.35C2770.33 3295.87 2763.82 3291.09 2756.38 3288.72C2752.88 3287.52 2749.2 3286.93 2745.51 3286.97H2060.19C2055.38 3286.96 2050.62 3287.93 2046.18 3289.82C2041.74 3291.71 2037.7 3294.49 2034.3 3298C2030.9 3301.5 2028.2 3305.67 2026.36 3310.25C2024.51 3314.84 2023.56 3319.75 2023.56 3324.72V3324.72ZM2319.56 3709.17C2319.76 3687.11 2328.37 3666.02 2343.54 3650.5C2358.7 3634.97 2379.18 3626.26 2400.53 3626.26C2421.87 3626.26 2442.35 3634.97 2457.52 3650.5C2472.68 3666.02 2481.3 3687.11 2481.49 3709.17V3838.99C2481.38 3861.11 2472.81 3882.28 2457.63 3897.88C2442.46 3913.48 2421.93 3922.24 2400.53 3922.24C2379.12 3922.24 2358.59 3913.48 2343.42 3897.88C2328.25 3882.28 2319.67 3861.11 2319.56 3838.99V3709.17Z" fill="#2F2E41"/>
<path id="Vector_75" d="M2021.24 4407.8V4515.7C2021.26 4521.29 2023.41 4526.64 2027.22 4530.61C2031.04 4534.57 2036.21 4536.82 2041.62 4536.86H2763.99C2769.41 4536.83 2774.59 4534.59 2778.41 4530.63C2782.22 4526.66 2784.37 4521.29 2784.37 4515.7V4407.8H2021.24Z" fill="#3F3D56"/>
<path id="Vector_76" d="M830.365 1638.99V3681.89C830.385 3707.92 840.401 3732.89 858.214 3751.29C876.027 3769.7 900.181 3780.05 925.373 3780.08H3854.78C3879.97 3780.05 3904.12 3769.7 3921.94 3751.29C3939.75 3732.89 3949.77 3707.92 3949.79 3681.89V1638.99C3949.73 1612.98 3939.69 1588.06 3921.89 1569.67C3904.08 1551.29 3879.95 1540.95 3854.78 1540.92H925.373C900.203 1540.95 876.072 1551.29 858.265 1569.67C840.458 1588.06 830.425 1612.98 830.365 1638.99Z" fill="#3F3D56"/>
<path id="Vector_77" d="M899.1 1664.41V3656.69C899.123 3670.6 904.48 3683.93 913.997 3693.77C923.514 3703.6 936.416 3709.14 949.876 3709.17H3830.41C3843.87 3709.14 3856.77 3703.6 3866.28 3693.77C3875.8 3683.93 3881.16 3670.6 3881.18 3656.69V1664.41C3881.18 1650.49 3875.83 1637.13 3866.32 1627.27C3856.8 1617.41 3843.88 1611.86 3830.41 1611.83H949.876C936.4 1611.86 923.486 1617.41 913.967 1627.27C904.448 1637.13 899.101 1650.49 899.1 1664.41Z" fill="white"/>
<path id="Vector_78" d="M1433.67 4529.55C1436.6 4533.35 1440.33 4536.41 1444.57 4538.51C1448.81 4540.61 1453.46 4541.69 1458.16 4541.66H3171.89C3176.57 4541.65 3181.2 4540.57 3185.43 4538.48C3189.66 4536.4 3193.39 4533.36 3196.34 4529.6C3199.29 4525.84 3201.4 4521.45 3202.5 4516.74C3203.6 4512.03 3203.67 4507.13 3202.71 4502.39L3176.11 4371.8C3175.01 4366.48 3172.63 4361.52 3169.2 4357.39C3165.78 4353.25 3161.4 4350.07 3156.48 4348.13C3152.91 4346.68 3149.12 4345.94 3145.29 4345.95H1484.66C1480.83 4345.94 1477.03 4346.68 1473.47 4348.13C1468.54 4350.07 1464.17 4353.25 1460.74 4357.39C1457.31 4361.52 1454.93 4366.48 1453.83 4371.8L1427.23 4502.39C1426.28 4507.12 1426.37 4512.02 1427.48 4516.72C1428.6 4521.42 1430.71 4525.8 1433.67 4529.55Z" fill="#2F2E41"/>
<path id="Vector_79" d="M3736.93 1886.27H1041.63C1038.83 1886.21 1036.16 1885.02 1034.2 1882.94C1032.24 1880.87 1031.15 1878.09 1031.15 1875.2C1031.15 1872.3 1032.24 1869.52 1034.2 1867.45C1036.16 1865.38 1038.83 1864.18 1041.63 1864.12H3736.93C3739.73 1864.18 3742.4 1865.38 3744.36 1867.45C3746.32 1869.52 3747.41 1872.3 3747.41 1875.2C3747.41 1878.09 3746.32 1880.87 3744.36 1882.94C3742.4 1885.02 3739.73 1886.21 3736.93 1886.27V1886.27Z" fill="#3F3D56"/>
<path id="Vector_80" d="M1225.08 1807.56C1259.78 1807.56 1287.9 1777.85 1287.9 1741.2C1287.9 1704.55 1259.78 1674.84 1225.08 1674.84C1190.39 1674.84 1162.27 1704.55 1162.27 1741.2C1162.27 1777.85 1190.39 1807.56 1225.08 1807.56Z" fill="#520054"/>
<path id="Vector_81" d="M1442.08 1807.56C1476.77 1807.56 1504.9 1777.85 1504.9 1741.2C1504.9 1704.55 1476.77 1674.84 1442.08 1674.84C1407.39 1674.84 1379.27 1704.55 1379.27 1741.2C1379.27 1777.85 1407.39 1807.56 1442.08 1807.56Z" fill="#520054"/>
<path id="Vector_82" d="M1659.06 1807.56C1693.76 1807.56 1721.88 1777.85 1721.88 1741.2C1721.88 1704.55 1693.76 1674.84 1659.06 1674.84C1624.37 1674.84 1596.25 1704.55 1596.25 1741.2C1596.25 1777.85 1624.37 1807.56 1659.06 1807.56Z" fill="#520054"/>
<path id="Vector_83" d="M3606.25 1691.25H3452.12C3449.08 1691.32 3446.18 1692.63 3444.05 1694.88C3441.92 1697.13 3440.73 1700.16 3440.73 1703.3C3440.73 1706.45 3441.92 1709.48 3444.05 1711.73C3446.18 1713.98 3449.08 1715.29 3452.12 1715.36H3606.25C3609.31 1715.32 3612.24 1714.03 3614.39 1711.77C3616.54 1709.51 3617.75 1706.47 3617.75 1703.3C3617.75 1700.14 3616.54 1697.1 3614.39 1694.84C3612.24 1692.58 3609.31 1691.29 3606.25 1691.25Z" fill="#3F3D56"/>
<path id="Vector_84" d="M3606.25 1736.52H3452.12C3449.08 1736.59 3446.17 1737.89 3444.04 1740.15C3441.91 1742.4 3440.71 1745.43 3440.71 1748.58C3440.71 1751.73 3441.91 1754.76 3444.04 1757.01C3446.17 1759.26 3449.08 1760.56 3452.12 1760.63H3606.25C3609.32 1760.59 3612.25 1759.31 3614.41 1757.05C3616.56 1754.79 3617.77 1751.75 3617.77 1748.58C3617.77 1745.41 3616.56 1742.36 3614.41 1740.11C3612.25 1737.85 3609.32 1736.56 3606.25 1736.52V1736.52Z" fill="#3F3D56"/>
<path id="Vector_85" d="M3606.25 1781.8H3452.12C3449.08 1781.87 3446.18 1783.17 3444.05 1785.43C3441.92 1787.68 3440.73 1790.7 3440.73 1793.85C3440.73 1797 3441.92 1800.03 3444.05 1802.28C3446.18 1804.53 3449.08 1805.83 3452.12 1805.91H3606.25C3609.31 1805.86 3612.24 1804.57 3614.39 1802.32C3616.54 1800.06 3617.75 1797.02 3617.75 1793.85C3617.75 1790.68 3616.54 1787.64 3614.39 1785.39C3612.24 1783.13 3609.31 1781.84 3606.25 1781.8V1781.8Z" fill="#3F3D56"/>
<path id="Vector_86" d="M7321.89 4455.15C7326.55 4469.15 7335.37 4481.26 7347.09 4489.75C7358.82 4498.24 7372.85 4502.67 7387.17 4502.4L7666.82 4494.96C7681.25 4494.67 7695.19 4489.57 7706.57 4480.41C7717.95 4471.25 7726.15 4458.54 7729.96 4444.16L7769.54 4006.83C7783.58 4013.4 7798.86 4016.65 7814.27 4016.33C7827.66 4015.98 7840.85 4012.91 7853.1 4007.3C7865.34 4001.68 7876.39 3993.63 7885.62 3983.6C7894.85 3973.57 7902.08 3961.76 7906.89 3948.84C7911.7 3935.93 7914.01 3922.16 7913.67 3908.32C7913.34 3894.48 7910.36 3880.85 7904.93 3868.2C7899.5 3855.55 7891.7 3844.13 7882 3834.59C7872.29 3825.05 7860.87 3817.58 7848.37 3812.61C7835.87 3807.63 7822.54 3805.25 7809.15 3805.6C7802.99 3805.58 7796.85 3806.24 7790.83 3807.57C7784.28 3800.24 7776.31 3794.42 7767.45 3790.47C7758.59 3786.52 7749.03 3784.53 7739.37 3784.63L7309.2 3796.11C7305.63 3796.24 7302.08 3796.7 7298.58 3797.47C7289.15 3799.28 7280.2 3803.17 7272.34 3808.86C7264.48 3814.55 7257.9 3821.92 7253.02 3830.46C7248.15 3839 7245.1 3848.52 7244.09 3858.39C7243.07 3868.25 7244.11 3878.22 7247.14 3887.63L7321.89 4455.15ZM7777.65 3977.14L7805.81 3872.92C7809.02 3860.88 7809.09 3848.19 7806.03 3836.11C7807.39 3836.1 7808.6 3835.43 7809.97 3835.43C7829.27 3835.02 7847.95 3842.54 7861.91 3856.33C7875.86 3870.13 7883.95 3889.09 7884.4 3909.04C7884.86 3928.99 7877.63 3948.32 7864.32 3962.78C7851.01 3977.23 7832.69 3985.65 7813.38 3986.17C7800.9 3986.57 7788.55 3983.45 7777.65 3977.14Z" fill="#2F2E41"/>
<path id="Vector_87" d="M7298.57 3797.47C7307.73 3851.62 7410.77 3889.69 7534.67 3883.08C7648.6 3877.65 7741.76 3836.31 7758.83 3787.31C7752.51 3785.38 7745.94 3784.47 7739.36 3784.63L7309.18 3796.11C7305.61 3796.24 7302.06 3796.7 7298.57 3797.47V3797.47Z" fill="#3F3D56"/>
<path id="Vector_88" d="M7557.36 4214.84C7557.93 4214.69 7558.46 4214.45 7558.95 4214.11L7619.69 4173.03C7620.42 4172.54 7621.02 4171.86 7621.44 4171.07C7621.86 4170.27 7622.08 4169.38 7622.08 4168.47C7622.08 4167.57 7621.86 4166.68 7621.44 4165.88C7621.02 4165.08 7620.42 4164.41 7619.69 4163.91L7556.56 4121.18C7555.98 4120.79 7555.33 4120.51 7554.65 4120.38C7553.97 4120.24 7553.27 4120.24 7552.59 4120.39C7551.91 4120.53 7551.26 4120.82 7550.69 4121.22C7550.11 4121.62 7549.62 4122.14 7549.24 4122.74C7548.86 4123.34 7548.6 4124.01 7548.47 4124.72C7548.34 4125.42 7548.35 4126.15 7548.49 4126.85C7548.63 4127.55 7548.91 4128.22 7549.3 4128.81C7549.69 4129.4 7550.2 4129.91 7550.78 4130.3L7607.16 4168.46L7553.17 4204.99C7552.13 4205.69 7551.36 4206.76 7551 4208C7550.65 4209.23 7550.73 4210.56 7551.23 4211.74C7551.73 4212.93 7552.62 4213.89 7553.75 4214.45C7554.87 4215.02 7556.15 4215.16 7557.36 4214.84H7557.36Z" fill="#6C63FF"/>
<path id="Vector_89" d="M7461.45 4219.41C7462.47 4219.14 7463.39 4218.57 7464.09 4217.76C7464.79 4216.95 7465.24 4215.94 7465.39 4214.86C7465.53 4213.79 7465.36 4212.69 7464.89 4211.72C7464.43 4210.74 7463.69 4209.93 7462.78 4209.39L7406.8 4176.22L7460.91 4134.69C7461.46 4134.26 7461.93 4133.73 7462.29 4133.11C7462.64 4132.5 7462.88 4131.82 7462.98 4131.11C7463.08 4130.4 7463.05 4129.68 7462.88 4128.98C7462.71 4128.29 7462.41 4127.64 7462 4127.06C7461.58 4126.49 7461.06 4126 7460.47 4125.64C7459.88 4125.27 7459.22 4125.02 7458.53 4124.92C7457.85 4124.82 7457.15 4124.85 7456.48 4125.03C7455.81 4125.2 7455.17 4125.51 7454.62 4125.94L7394.04 4172.44C7393.33 4172.98 7392.77 4173.69 7392.4 4174.51C7392.03 4175.33 7391.86 4176.24 7391.91 4177.14C7391.96 4178.04 7392.23 4178.92 7392.7 4179.69C7393.16 4180.46 7393.8 4181.1 7394.56 4181.55L7457.53 4218.85C7458.72 4219.56 7460.12 4219.76 7461.45 4219.41V4219.41Z" fill="#6C63FF"/>
<path id="Vector_90" d="M7551.34 4250.84C7551.85 4250.71 7552.33 4250.5 7552.78 4250.21C7553.37 4249.84 7553.89 4249.35 7554.3 4248.77C7554.71 4248.19 7555.01 4247.54 7555.17 4246.84C7555.33 4246.14 7555.36 4245.42 7555.26 4244.71C7555.15 4244.01 7554.91 4243.33 7554.55 4242.71L7468.46 4096.44C7467.73 4095.2 7466.55 4094.32 7465.19 4093.98C7463.83 4093.64 7462.4 4093.87 7461.21 4094.62C7460.01 4095.38 7459.15 4096.59 7458.82 4097.99C7458.49 4099.4 7458.71 4100.88 7459.44 4102.12L7545.53 4248.39C7546.12 4249.39 7547 4250.16 7548.04 4250.6C7549.09 4251.04 7550.24 4251.13 7551.34 4250.84Z" fill="#6C63FF"/>
<path id="anima-line" d="M2711.31 2488.47H2244.81C2225.78 2488.47 2210.35 2504.41 2210.35 2524.08V2571.18C2210.35 2590.85 2225.78 2606.79 2244.81 2606.79H2711.31C2730.34 2606.79 2745.76 2590.85 2745.76 2571.18V2524.08C2745.76 2504.41 2730.34 2488.47 2711.31 2488.47Z" fill="#FF0095" fill-opacity="0.71"/>
<path id="anima-line2" d="M2983.22 2725.11H1972.89C1953.86 2725.11 1938.43 2741.05 1938.43 2760.72V2807.82C1938.43 2827.49 1953.86 2843.43 1972.89 2843.43H2983.22C3002.25 2843.43 3017.68 2827.49 3017.68 2807.82V2760.72C3017.68 2741.05 3002.25 2725.11 2983.22 2725.11Z" fill="#F006F4"/>
<path id="anima-line3" d="M2986.22 2961.75H1975.89C1956.86 2961.75 1941.43 2977.69 1941.43 2997.36V3044.46C1941.43 3064.13 1956.86 3080.07 1975.89 3080.07H2986.22C3005.25 3080.07 3020.68 3064.13 3020.68 3044.46V2997.36C3020.68 2977.69 3005.25 2961.75 2986.22 2961.75Z" fill="#FF0095" fill-opacity="0.76"/>
<path id="Vector_91" d="M3068.87 3754.17L3071.16 3761.63L3071.28 3761.88L3140.16 3978.3L3219.4 4227.7L3368.49 4696.39L3369.93 4769.19V4769.44L3381.01 5355.11L3350.3 5434.5L3384.87 5564.68C3384.87 5564.68 3368.97 5367.91 3283.71 5480.91C3235.42 5545.13 3178.94 5610.84 3132.58 5672.44C3200.14 5700.69 3268.78 5726.24 3338.5 5749.1C3353.56 5754.08 3368.73 5758.81 3383.9 5763.54C3387.15 5764.53 3390.41 5765.53 3393.66 5766.52C3624.79 5837.16 3863.73 5876.85 4104.64 5884.63C4117.16 5885 4129.45 5885.25 4141.37 5885.5C4145.59 5885.62 4149.68 5885.75 4153.77 5885.75C4167.26 5885.87 4180.63 5886 4194.12 5886C4221.33 5886 4248.43 5885.58 4275.4 5884.75C4475.06 5878.94 4673.55 5851.19 4867.53 5801.99C4866.2 5719.23 4862.59 5622.53 4857.41 5519.24C4855 5468.59 4800.93 5413.71 4797.68 5360.69C4795.39 5320.86 4843.92 5283.4 4841.4 5242.96C4825.02 4993.93 4804.55 5089.53 4789.37 4913.18C4787.81 4895.88 4786.36 4879.33 4785.04 4863.52C4775.28 4750.27 4768.54 4679.46 4768.54 4679.46L4833.33 4257.45L4935.09 3594.87L4927.26 3581.55L4918.47 3577.07L4381.74 3302.53L4352.59 3225.37C4344.1 3203.14 4329.37 3184.05 4310.29 3170.54C4291.21 3157.04 4268.66 3149.74 4245.54 3149.58L3891.97 3148.09C3873.62 3148 3855.52 3152.44 3839.16 3161.03C3822.8 3169.63 3808.67 3182.13 3797.92 3197.5L3702.18 3334.52L3068.87 3754.17Z" fill="#3F3D56"/>
<path id="Vector_92" d="M3450.01 4592.09L3369.93 4769.19L3315.26 4890.16L3221.21 5399.04L3174.12 5450.68L3133.78 5267.85L2711.55 5364.73C2697.7 5285.21 2707.84 5367.42 2699.29 5280.18C2701.7 5277.7 2704.23 5275.21 2706.76 5272.72C2713.5 5266.25 2719.16 5260.15 2719.04 5254.3C2714.22 4953.38 2728.67 4441.26 2849.34 4131C2868.24 4080.35 2893.15 4032.31 2923.52 3988.01C2925.93 3984.65 2928.22 3981.29 2930.5 3977.93C2986.14 3897.41 3021.3 3818.13 3071.16 3761.76V3761.63C3071.47 3761.38 3071.75 3761.08 3072 3760.76C3072.18 3760.67 3072.35 3760.54 3072.48 3760.39L3414.97 3572.72L3429.66 3999.33L3440.14 4305.98L3450.01 4592.09Z" fill="#3F3D56"/>
<path id="Vector_93" d="M4684.96 4642.4L4784.99 4863.58L4819.9 4940.61L4913.93 5449.45L4960.86 5500.97L5001.29 5318.18L5020.29 5314.15L5362.94 5240.81L5462.81 5568.6C5485.32 5529.84 5494.19 5484.24 5487.91 5439.5C5481.64 5394.77 5460.61 5353.64 5428.38 5323.08C5421.56 5316.7 5415.88 5310.49 5416.04 5304.62C5421.72 4950.68 5400.78 4304.4 5211.59 4038.41C5151.51 3953.99 5115.46 3869.91 5063 3811.18C5062.84 3811.01 5062.84 3810.84 5062.68 3810.84L4935.04 3594.86L4927.24 3581.6L4918.48 3577.07L4684.96 4642.4Z" fill="#3F3D56"/>
<g id="head">
<path id="Ellipse 5" d="M4095 3067.11C4354.78 3067.11 4565.37 2849.47 4565.37 2581C4565.37 2312.54 4354.78 2094.9 4095 2094.9C3835.21 2094.9 3624.62 2312.54 3624.62 2581C3624.62 2849.47 3835.21 3067.11 4095 3067.11Z" fill="#FFB6B6"/>
<path id="Vector_94" d="M4730.76 2241.46C4727.11 2237.44 4722.72 2234.21 4717.84 2231.98C4712.96 2229.75 4707.7 2228.56 4702.36 2228.48L4709.43 2208.19C4711.74 2201.8 4712.37 2194.88 4711.24 2188.16C4710.11 2181.44 4707.28 2175.15 4703.02 2169.93C4698.77 2164.71 4693.25 2160.76 4687.03 2158.47C4680.81 2156.18 4674.12 2155.65 4667.63 2156.91L4641.87 2162.04L4644.3 2144.26C4645.23 2137.64 4644.48 2130.88 4642.12 2124.65C4639.75 2118.41 4635.86 2112.93 4630.82 2108.72C4625.78 2104.52 4619.77 2101.74 4613.38 2100.66C4606.99 2099.59 4600.44 2100.25 4594.37 2102.58C4588.85 2104.83 4582.91 2105.77 4576.99 2105.34C4571.07 2104.9 4565.32 2103.1 4560.17 2100.07C4554.99 2097.14 4550.49 2093.07 4546.99 2088.15C4543.49 2083.23 4541.07 2077.59 4539.9 2071.6L4530.93 2026.87L4529.97 2024.47C4486.27 1949.2 4402.24 1894.43 4299.42 1874.36C4207.9 1856.36 4114.05 1865.52 4023.58 1874.14C3987.69 1877.63 3947.16 1881.56 3913.37 1902.94C3884.66 1921.27 3860.38 1957.92 3865.34 1994.91C3776.14 1966.65 3680.5 2023.05 3633.1 2094.18C3576.94 2178.84 3567.76 2284.88 3566.28 2367.79C3562.27 2563.94 3601.43 2724.42 3682.4 2844.86C3688.31 2853.59 3689.79 2871.81 3701.51 2877.92L3699.08 2873.88C3712.17 2880.64 3725.47 2891.55 3720.51 2903.23C3706.26 2936.83 3800.95 3011.12 3867.67 3035.67C3989.38 3080.5 4151.21 3076.69 4265.01 3060.54L4269.02 3032.72C4310.08 3026.94 4339.01 3015.92 4347.14 2998.68C4361.49 2986.03 4373.74 2974.68 4384.4 2964.21L4384.51 2964.1C4384.72 2963.88 4385.14 2963.55 4385.35 2963.34C4436.76 2912.39 4448.69 2883.37 4454.07 2839.19C4459.25 2795.88 4450.06 2751.91 4440.67 2712.31C4638.5 2743.95 4362.76 2494.56 4547.08 2446.34C4549.19 2445.67 4551.34 2445.12 4553.52 2444.7C4558.9 2443.39 4564.28 2442.09 4569.46 2440.56C4594.39 2433.56 4618.26 2423.03 4640.4 2409.25C4691.91 2376.85 4708.91 2333.86 4735.51 2285.43C4739.35 2278.53 4740.96 2270.55 4740.1 2262.64C4739.25 2254.73 4735.97 2247.31 4730.76 2241.46V2241.46Z" fill="#2F2E41"/>
</g>
<path id="Vector_95" d="M5742.6 4677.01C5742.49 4696.1 5742.28 4722.82 5741.44 4755.88C5741.33 4760.46 5741.23 4765.15 5741.12 4769.95C5739.75 4830.72 5738.38 4881.67 5736.16 4938.29C5736.05 4942.21 5735.95 4946.03 5735.74 4949.96C5732.78 5028.94 5728.14 5120.91 5720.11 5266.55C5705.23 5535.58 5679.26 5303.53 5653.19 5397.9C5651.92 5402.59 5650.55 5408.15 5649.28 5414.7C5645.33 5438.45 5638.67 5461.63 5629.43 5483.76C5615.61 5492.27 5601.35 5500.45 5587.31 5508.63C5547.31 5531.65 5506.66 5553.79 5465.7 5574.85C5442.69 5586.63 5419.57 5598.2 5396.35 5609.32C5392.66 5611.07 5389.07 5612.81 5385.48 5614.45C5266.55 5671.3 5143.98 5719.63 5018.64 5759.11C4994.15 5766.75 4969.77 5774.16 4945.06 5781.04C4919.31 5788.46 4893.55 5795.44 4867.47 5801.98C4673.5 5851.2 4475.02 5878.95 4275.36 5884.79C4248.45 5885.66 4221.32 5885.99 4194.08 5885.99C4180.57 5885.99 4167.27 5885.88 4153.75 5885.77C4149.64 5885.77 4145.52 5885.66 4141.4 5885.55C4129.47 5885.22 4117.12 5885 4104.67 5884.68C3863.76 5876.91 3624.81 5837.2 3393.69 5766.53L3383.87 5763.58C3368.67 5758.78 3353.58 5754.09 3338.48 5749.07C3268.81 5726.27 3200.16 5700.74 3132.53 5672.49C3080.91 5651 3029.88 5627.94 2979.46 5603.32C2979 5603.19 2978.57 5602.97 2978.19 5602.67C2967.63 5597.65 2956.97 5592.41 2946.42 5587.07C2945.04 5586.3 2943.57 5585.54 2942.09 5584.78C2902.71 5564.92 2863.76 5544.12 2825.23 5522.38C2792.82 5445.46 2747.22 5430.74 2718.93 5363.1C2710.69 5343 2704.74 5321.99 2701.19 5300.48C2701.19 5300.26 2701.09 5300.04 2701.09 5299.71C2704.04 5340.3 2688.52 5227.71 2700.98 5299.28C2700.87 5297.97 2700.77 5296.55 2700.66 5294.91C2700.35 5290.99 2699.93 5286.19 2699.29 5280.19C2663.08 4914.83 2665.41 4497 2649.68 4152.7C2648.62 4130.44 2647.53 4109.13 2646.4 4088.77C2646.09 4082.01 2645.66 4075.35 2645.24 4068.81C2645.98 4066.84 2646.83 4064.77 2647.78 4062.8C2647.98 4062.24 2648.23 4061.69 2648.51 4061.17C2648.83 4060.49 2649.18 4059.84 2649.57 4059.2C2649.78 4058.88 2650.1 4058.44 2650.31 4058.11C2650.46 4057.74 2650.64 4057.38 2650.84 4057.02C2651.79 4055.5 2652.84 4053.86 2654 4052.33C2654.53 4051.68 2654.95 4051.13 2655.48 4050.59C2655.85 4050.03 2656.27 4049.52 2656.75 4049.06C2657.07 4048.53 2657.46 4048.06 2657.91 4047.64C2658.33 4047.2 2658.75 4046.66 2659.28 4046.11C2659.51 4045.77 2659.79 4045.47 2660.13 4045.24C2660.96 4044.25 2661.88 4043.34 2662.87 4042.51C2666.64 4038.93 2670.66 4035.65 2674.91 4032.7C2676.38 4031.71 2677.97 4030.73 2679.44 4029.64C2690.08 4023.06 2701.29 4017.51 2712.91 4013.06C2716.92 4011.53 2720.93 4010.11 2725.26 4008.59C2726.84 4008.15 2728.32 4007.6 2729.9 4007.06C2732.23 4006.29 2734.55 4005.53 2736.98 4004.99C2749.01 4001.28 2762 3998.11 2776.04 3995.17C2777.73 3994.84 2779.52 3994.51 2781.31 3994.08C2783.85 3993.53 2786.49 3993.09 2789.13 3992.66C2792.72 3992 2796.41 3991.35 2800.1 3990.69C2831.46 3985.57 2867.03 3981.75 2906.3 3979.24C2910 3979.02 2913.69 3978.8 2917.39 3978.58C2921.71 3978.37 2926.04 3978.15 2930.48 3977.93C2934.17 3977.71 2937.97 3977.6 2941.77 3977.49C2945.47 3977.28 2949.27 3977.17 2953.17 3977.06C2963.83 3976.73 2974.81 3976.4 2986 3976.18C3017.88 3975.53 3051.45 3975.75 3086.71 3976.51C3103.07 3976.95 3119.75 3977.38 3136.85 3978.15C3138.02 3978.15 3139.07 3978.26 3140.13 3978.26C3155.01 3978.8 3170 3979.46 3185.41 3980.33C3196.18 3980.88 3207.05 3981.42 3217.93 3982.08C3228.17 3982.73 3238.51 3983.39 3248.96 3984.15C3257.09 3984.59 3265.22 3985.24 3273.45 3985.78C3280.42 3986.33 3287.39 3986.88 3294.36 3987.31L3303.86 3987.97C3309.03 3988.4 3314.2 3988.73 3319.48 3989.28C3331.09 3990.26 3342.7 3991.24 3354.53 3992.22C3366.25 3993.31 3378.17 3994.4 3390.1 3995.49C3402.03 3996.59 3414.07 3997.79 3426.1 3998.99C3427.37 3999.09 3428.53 3999.2 3429.69 3999.31C3440.67 4000.51 3451.65 4001.6 3462.73 4002.8C3465.26 4003.02 3467.9 4003.24 3470.44 4003.57C3481 4004.66 3491.78 4005.95 3502.44 4007.12C3505.72 4007.49 3508.97 4007.84 3512.26 4008.21C3520.61 4009.15 3528.84 4009.96 3537.26 4010.99C3548.34 4012.29 3559.64 4013.49 3570.62 4015.02C3579.17 4016 3587.72 4016.99 3596.27 4018.08C3609.67 4019.71 3623.29 4021.46 3636.91 4023.31C3642.08 4023.97 3647.26 4024.62 3652.43 4025.39C3691.28 4030.4 3730.55 4035.97 3770.45 4041.75C3830.94 4050.59 3892.38 4060.19 3954.24 4070.55C4016.2 4080.92 4078.52 4091.86 4141.19 4103.39C4157.03 4106.33 4172.86 4109.28 4188.8 4112.33C4195.98 4113.75 4203.16 4115.17 4210.33 4116.59C4222.58 4118.88 4234.83 4121.28 4247.07 4123.68C4259.32 4126.08 4271.56 4128.48 4283.81 4130.99C4298.38 4133.93 4313.05 4136.88 4327.62 4139.82C4423.57 4159.46 4519 4180.41 4612.11 4202.34C4627.42 4205.94 4642.73 4209.65 4657.93 4213.25C4688.33 4220.56 4718.45 4227.97 4748.29 4235.5C4756.52 4237.46 4764.65 4239.54 4772.78 4241.61C4793.05 4246.85 4813.32 4252.08 4833.27 4257.43L4836.75 4258.41C4851.43 4262.12 4865.78 4265.94 4880.14 4269.87C4914.03 4279.03 4947.35 4288.3 4980.11 4297.68C5001.85 4303.9 5023.36 4310.19 5044.61 4316.56C5076.38 4326.05 5107.52 4335.65 5137.82 4345.36C5145.32 4347.76 5152.81 4350.16 5160.2 4352.45C5182.37 4359.54 5204.22 4366.74 5225.44 4373.94C5242.33 4379.61 5258.8 4385.4 5275.05 4391.18C5291.31 4396.96 5307.25 4402.74 5322.88 4408.52C5332.9 4412.23 5342.83 4416.16 5352.75 4419.87C5367 4425.32 5381.04 4430.78 5394.76 4436.23C5398.99 4437.87 5403.1 4439.62 5407.22 4441.25C5409.86 4442.45 5412.39 4443.43 5414.93 4444.52C5419.89 4446.6 5424.96 4448.56 5429.81 4450.63C5434.77 4452.6 5439.63 4454.67 5444.49 4456.85C5449.24 4458.82 5454.09 4460.89 5458.74 4462.96C5463.49 4464.93 5468.13 4467 5472.78 4469.18C5476.68 4470.82 5480.48 4472.56 5484.18 4474.31C5491.67 4477.69 5499.17 4481.07 5506.45 4484.56C5510.04 4486.31 5513.63 4487.94 5517.22 4489.69L5525.45 4493.62C5526.61 4494.27 5527.78 4494.82 5528.94 4495.36C5531.58 4496.67 5534.32 4498.09 5536.96 4499.4C5543.08 4502.35 5549.1 4505.51 5555.01 4508.45C5562.93 4512.6 5570.63 4516.75 5578.02 4520.78C5585.52 4524.93 5592.8 4529.07 5599.77 4533.11C5600.93 4533.76 5601.99 4534.42 5603.15 4535.07C5604.73 4535.95 5606.32 4536.93 5607.9 4537.8C5613.28 4540.96 5618.46 4544.24 5623.63 4547.4C5633.76 4553.84 5643.37 4560.16 5652.34 4566.49C5654.35 4567.91 5656.25 4569.33 5658.25 4570.64C5664.9 4575.55 5671.24 4580.35 5677.15 4585.26C5677.15 4585.37 5677.15 4585.37 5677.25 4585.37C5679.26 4586.89 5681.16 4588.53 5683.06 4590.06C5684.64 4591.58 5686.33 4592.89 5687.92 4594.42C5693.41 4599.33 5698.47 4604.02 5703.12 4608.82C5704.67 4610.3 5706.15 4611.87 5707.55 4613.51C5708.17 4614.04 5708.73 4614.62 5709.24 4615.26C5711.35 4617.44 5713.25 4619.62 5715.05 4621.8C5715.32 4622.1 5715.57 4622.43 5715.79 4622.78C5718.32 4625.84 5720.64 4628.89 5722.86 4631.95C5723.91 4633.48 5725.08 4635 5726.03 4636.53C5727.29 4638.38 5728.56 4640.35 5729.61 4642.2C5730.56 4643.73 5731.41 4645.37 5732.25 4646.9C5734.49 4650.83 5736.4 4654.95 5737.95 4659.22C5739.14 4662.12 5740.09 4665.11 5740.8 4668.17C5741.6 4671.07 5742.2 4674.02 5742.6 4677.01V4677.01Z" fill="#2F2E41"/>
<path id="Vector_96" opacity="0.2" d="M5742.61 4677C5742.51 4696.09 5742.3 4722.82 5741.45 4755.88C5741.35 4760.46 5741.14 4765.15 5741.03 4769.95C5739.98 4816.32 5738.39 4873.59 5736.18 4938.28C5736.07 4942.21 5735.96 4946.03 5735.75 4949.96C5732.8 5028.94 5728.15 5120.91 5720.13 5266.55C5705.25 5535.57 5679.28 5303.53 5653.2 5397.9C5580.78 5351.86 5501.4 5303.64 5416.53 5254.11C5401.22 5245.16 5385.77 5236.18 5370.18 5227.16C5200.44 5129.31 5010.84 5026.76 4812.91 4925.19C4805.1 4921.16 4797.18 4917.12 4789.37 4913.19C4335.97 4681.58 3841.09 4456.3 3440.15 4305.97C3362.78 4276.95 3288.88 4250.77 3219.42 4227.75C3073.11 4179.42 2946.64 4145.6 2849.31 4130.99C2747.97 4115.71 2677.98 4121.17 2649.69 4152.7C2648.63 4130.44 2647.54 4109.13 2646.42 4088.77C2645.99 4082 2645.57 4075.35 2645.15 4068.8C2645.8 4067.01 2646.65 4065.29 2647.47 4063.56C2647.59 4063.31 2647.67 4063.05 2647.79 4062.8C2647.99 4062.24 2648.24 4061.69 2648.53 4061.17C2648.84 4060.49 2649.19 4059.83 2649.58 4059.2C2649.93 4058.43 2650.35 4057.7 2650.85 4057.02C2651.8 4055.49 2652.86 4053.86 2654.02 4052.33C2654.87 4051.18 2655.79 4050.09 2656.76 4049.06C2657.09 4048.53 2657.48 4048.05 2657.92 4047.64C2658.35 4047.2 2658.77 4046.66 2659.3 4046.11C2659.52 4045.77 2659.81 4045.47 2660.14 4045.24C2660.98 4044.25 2661.89 4043.33 2662.89 4042.51C2666.65 4038.93 2670.67 4035.65 2674.92 4032.69C2676.4 4031.71 2677.98 4030.73 2679.46 4029.64C2690.1 4023.06 2701.3 4017.51 2712.92 4013.05C2716.93 4011.53 2720.95 4010.11 2725.27 4008.58C2726.86 4008.15 2728.33 4007.6 2729.92 4007.05C2732.24 4006.29 2734.56 4005.53 2736.99 4004.98C2749.03 4001.27 2762.01 3998.11 2776.05 3995.16C2780.27 3994.29 2784.71 3993.42 2789.14 3992.65C2792.73 3992 2796.42 3991.35 2800.12 3990.69C2831.47 3985.56 2867.05 3981.74 2906.32 3979.24C2910.01 3979.02 2913.71 3978.8 2917.4 3978.58C2921.73 3978.36 2926.06 3978.14 2930.49 3977.93C2934.19 3977.71 2937.99 3977.6 2941.79 3977.49C2945.48 3977.27 2949.28 3977.16 2953.19 3977.05C2963.85 3976.73 2974.83 3976.4 2986.02 3976.18C3017.9 3975.64 3051.47 3975.85 3086.73 3976.62C3103.09 3976.94 3119.77 3977.49 3136.87 3978.25C3137.92 3978.25 3139.09 3978.36 3140.14 3978.36C3155.03 3978.8 3170.12 3979.56 3185.43 3980.33C3196.2 3980.87 3207.07 3981.42 3217.94 3982.07C3228.18 3982.73 3238.53 3983.38 3248.98 3984.14C3257.11 3984.58 3265.23 3985.24 3273.47 3985.78C3280.43 3986.33 3287.4 3986.87 3294.37 3987.31C3302.71 3987.96 3311.05 3988.62 3319.49 3989.27C3331.11 3990.25 3342.72 3991.24 3354.54 3992.22C3366.26 3993.31 3378.19 3994.4 3390.12 3995.49C3402.05 3996.58 3414.08 3997.78 3426.11 3998.98C3427.38 3999.09 3428.54 3999.2 3429.7 3999.31C3440.68 4000.51 3451.66 4001.6 3462.74 4002.8C3524.18 4009.24 3587.42 4016.76 3652.44 4025.38C3691.29 4030.51 3730.63 4036 3770.46 4041.86C3830.95 4050.69 3892.39 4060.29 3954.25 4070.55C4016.22 4080.91 4078.54 4091.86 4141.21 4103.38C4157.04 4106.33 4172.87 4109.28 4188.81 4112.33C4208.24 4116.04 4227.66 4119.82 4247.09 4123.68C4259.33 4126.08 4271.58 4128.48 4283.82 4130.99C4298.39 4133.93 4313.06 4136.88 4327.63 4139.82C4423.59 4159.46 4519.02 4180.41 4612.13 4202.33C4627.43 4205.93 4642.74 4209.64 4657.94 4213.24C4688.34 4220.55 4718.47 4227.97 4748.31 4235.5C4756.54 4237.57 4764.67 4239.64 4772.8 4241.72C4793.17 4246.95 4813.33 4252.19 4833.28 4257.43V4257.53C4834.45 4257.75 4835.61 4258.08 4836.77 4258.41C4851.34 4262.23 4865.8 4266.04 4880.15 4269.97C4914.04 4279.14 4947.36 4288.37 4980.12 4297.68C5001.87 4304.01 5023.41 4310.23 5044.62 4316.55C5076.4 4326.16 5107.54 4335.76 5137.84 4345.36C5145.33 4347.76 5152.83 4350.16 5160.22 4352.45C5182.39 4359.65 5204.13 4366.81 5225.46 4373.94C5242.35 4379.61 5258.81 4385.39 5275.07 4391.18C5291.33 4396.96 5307.27 4402.74 5322.89 4408.52C5333.03 4412.23 5342.95 4416.05 5352.77 4419.76C5367.12 4425.21 5381.06 4430.67 5394.78 4436.23C5399 4437.87 5403.12 4439.61 5407.24 4441.25C5414.94 4444.3 5422.44 4447.47 5429.83 4450.63C5434.79 4452.6 5439.65 4454.67 5444.5 4456.85C5449.25 4458.81 5454.11 4460.89 5458.75 4462.96C5463.5 4464.92 5468.15 4467 5472.79 4469.18C5476.7 4470.81 5480.5 4472.56 5484.19 4474.3C5491.69 4477.69 5499.18 4481.07 5506.47 4484.56C5510.06 4486.31 5513.65 4487.94 5517.23 4489.69L5525.47 4493.61C5526.63 4494.27 5527.79 4494.81 5528.95 4495.36C5537.93 4499.72 5546.58 4504.09 5555.03 4508.45C5562.94 4512.6 5570.65 4516.74 5578.04 4520.78C5586.8 4525.58 5595.14 4530.27 5603.16 4535.07C5604.75 4535.94 5606.33 4536.92 5607.91 4537.8C5613.3 4540.96 5618.47 4544.23 5623.64 4547.4C5633.78 4553.83 5643.38 4560.16 5652.36 4566.49C5661.22 4572.82 5669.46 4579.03 5677.16 4585.25C5677.16 4585.36 5677.16 4585.36 5677.27 4585.36C5680.96 4588.42 5684.55 4591.47 5687.93 4594.42C5693.42 4599.33 5698.49 4604.02 5703.13 4608.82C5704.69 4610.3 5706.17 4611.86 5707.57 4613.51C5708.18 4614.03 5708.75 4614.62 5709.26 4615.25C5711.47 4617.76 5713.69 4620.27 5715.8 4622.78C5718.34 4625.84 5720.66 4628.89 5722.87 4631.95C5723.93 4633.47 5725.09 4635 5726.04 4636.53C5727.31 4638.38 5728.57 4640.35 5729.63 4642.2C5730.58 4643.73 5731.43 4645.36 5732.27 4646.89C5734.51 4650.82 5736.42 4654.95 5737.97 4659.22C5739.12 4662.13 5740.08 4665.12 5740.82 4668.16C5741.62 4671.06 5742.22 4674.02 5742.61 4677V4677Z" fill="black"/>
</g>
</svg>
