<svg width="802" height="648" viewBox="0 0 802 648" fill="none" xmlns="http://www.w3.org/2000/svg">
<path d="M769.821 0.00407464H529.206C517.595 0.00350598 506.329 3.95354 497.26 11.2048C488.191 18.4561 481.86 28.5771 479.306 39.9041L357.73 579.172C356.404 585.054 356.38 591.155 357.662 597.047C358.943 602.939 361.497 608.479 365.146 613.28C368.794 618.08 373.449 622.024 378.783 624.836C384.117 627.647 390.002 629.257 396.024 629.554L643.379 641.741C656.624 642.394 669.654 638.205 680.038 629.956C690.421 621.707 697.449 609.962 699.809 596.913L768.779 215.646L773.91 217.112L787.11 144.847L781.829 143.527L801.08 37.1011C801.905 32.5425 801.714 27.8581 800.521 23.3817C799.328 18.9054 797.162 14.7474 794.177 11.2042C791.193 7.66106 787.463 4.81995 783.255 2.88345C779.046 0.94696 774.462 -0.0372209 769.83 0.00107629L769.821 0.00407464Z" fill="#3F3D56"/>
<path d="M560.879 11.6291H532.795C524.729 11.6292 516.906 14.3878 510.624 19.4469C504.342 24.5061 499.979 31.5615 498.259 39.4421L381.559 574.31C380.887 577.39 380.887 580.578 381.56 583.657C382.233 586.737 383.563 589.635 385.459 592.153C387.355 594.671 389.772 596.75 392.545 598.248C395.319 599.747 398.383 600.629 401.528 600.834L648.079 616.994C655.035 617.45 661.915 615.329 667.406 611.036C672.898 606.742 676.616 600.577 677.852 593.717L777.432 40.8791C778.076 37.3009 777.928 33.6249 776.996 30.1105C776.065 26.5961 774.374 23.3289 772.042 20.5395C769.71 17.75 766.794 15.5064 763.501 13.9668C760.207 12.4272 756.616 11.6292 752.98 11.6291H726.337C723.758 11.629 721.251 12.4791 719.204 14.0477C717.157 15.6163 715.685 17.8159 715.014 20.3061C714.422 22.5052 713.121 24.4477 711.313 25.8327C709.506 27.2178 707.291 27.9679 705.014 27.9671H578.526C574.068 27.967 569.773 26.2843 566.502 23.2553C563.23 20.2264 561.222 16.0743 560.879 11.6291Z" fill="white"/>
<path d="M697.173 385.547C697.652 385.564 698.122 385.407 698.495 385.107C698.869 384.806 699.122 384.381 699.209 383.909L753.732 82.9921C753.784 82.7061 753.774 82.4122 753.702 82.1306C753.63 81.8489 753.498 81.5861 753.315 81.3601C753.134 81.1359 752.906 80.9543 752.646 80.8283C752.387 80.7023 752.103 80.635 751.815 80.6311L503.756 77.7011H503.733C503.283 77.7049 502.847 77.8615 502.497 78.1453C502.147 78.4291 501.904 78.8232 501.808 79.2631L437.532 370.413C437.469 370.697 437.468 370.992 437.53 371.276C437.591 371.56 437.713 371.828 437.888 372.061C438.061 372.292 438.282 372.482 438.537 372.618C438.792 372.754 439.073 372.831 439.361 372.846L697.173 385.547Z" fill="#FFF2FF"/>
<path d="M481.908 405.003C481.682 405.003 481.463 405.08 481.287 405.22C481.11 405.36 480.986 405.556 480.935 405.776L478.612 415.732C478.579 415.873 478.577 416.019 478.606 416.16C478.635 416.302 478.694 416.435 478.78 416.552C478.865 416.668 478.975 416.765 479.101 416.835C479.228 416.905 479.368 416.946 479.512 416.957L610.742 426.284C610.985 426.3 611.226 426.226 611.42 426.078C611.613 425.93 611.747 425.716 611.795 425.477L614.029 413.958C614.056 413.818 614.053 413.674 614.02 413.536C613.987 413.397 613.924 413.268 613.837 413.155C613.75 413.043 613.64 412.95 613.514 412.884C613.388 412.817 613.249 412.779 613.107 412.77L481.969 405.005L481.908 405.003Z" fill="#E6E6E6"/>
<path d="M641.345 463.265C641.582 463.284 641.817 463.218 642.01 463.079C642.202 462.94 642.339 462.738 642.396 462.507L645.24 450.964C645.275 450.823 645.278 450.675 645.25 450.532C645.222 450.389 645.164 450.254 645.078 450.136C644.992 450.018 644.882 449.921 644.754 449.85C644.627 449.779 644.485 449.737 644.34 449.727L476.751 438.006C476.524 437.988 476.297 438.049 476.109 438.179C475.922 438.309 475.785 438.5 475.722 438.719L472.767 448.694C472.725 448.837 472.715 448.987 472.738 449.134C472.762 449.281 472.817 449.42 472.901 449.543C472.986 449.666 473.096 449.768 473.225 449.842C473.353 449.917 473.497 449.962 473.645 449.974L641.345 463.265Z" fill="#E6E6E6"/>
<path d="M632.345 500.265C632.582 500.284 632.817 500.218 633.01 500.079C633.202 499.94 633.339 499.738 633.396 499.507L636.24 487.964C636.275 487.823 636.278 487.675 636.25 487.532C636.222 487.389 636.164 487.254 636.078 487.136C635.992 487.018 635.882 486.921 635.754 486.85C635.627 486.779 635.485 486.737 635.34 486.727L467.751 475.006C467.524 474.988 467.297 475.049 467.109 475.179C466.922 475.309 466.785 475.5 466.722 475.719L463.767 485.694C463.725 485.837 463.715 485.987 463.738 486.134C463.762 486.281 463.817 486.42 463.901 486.543C463.986 486.666 464.096 486.768 464.225 486.842C464.353 486.917 464.497 486.962 464.645 486.974L632.345 500.265Z" fill="#E6E6E6"/>
<path d="M341.778 630.523C341.778 638.892 265.173 639.783 170.889 645.676C76.689 651.563 0 638.892 0 630.523C0 622.154 77.047 605.316 170.889 615.37C265.173 625.472 341.778 622.154 341.778 630.523Z" fill="#E6E6E6"/>
<path d="M555.16 563.517C555.399 563.542 555.638 563.479 555.834 563.34C556.03 563.202 556.168 562.996 556.224 562.763L562.237 538.712C562.272 538.572 562.277 538.425 562.25 538.282C562.223 538.14 562.165 538.005 562.081 537.887C561.997 537.769 561.888 537.671 561.762 537.599C561.636 537.528 561.496 537.484 561.351 537.472L458.435 528.816C458.195 528.8 457.956 528.869 457.762 529.011C457.568 529.154 457.431 529.361 457.375 529.595L452.246 552.678C452.215 552.817 452.214 552.96 452.243 553.099C452.272 553.238 452.33 553.369 452.414 553.484C452.497 553.599 452.604 553.694 452.728 553.765C452.851 553.835 452.988 553.878 453.129 553.891L555.16 563.517Z" fill="#6C63FF"/>
<path d="M139.609 465.51C140.905 464.622 141.99 463.461 142.789 462.108C143.587 460.755 144.079 459.243 144.23 457.68C144.381 456.116 144.187 454.538 143.662 453.057C143.137 451.577 142.293 450.229 141.191 449.11L145.358 356.092L124.143 358.473L125.376 449.458C123.617 451.433 122.643 453.985 122.64 456.63C122.638 459.275 123.605 461.829 125.361 463.808C127.116 465.787 129.536 467.053 132.163 467.366C134.789 467.679 137.439 467.017 139.61 465.506L139.609 465.51Z" fill="#A0616A"/>
<path d="M178.312 622.969L190.387 625.092L202.321 579.528L186.5 576.395L178.312 622.969Z" fill="#A0616A"/>
<path d="M211.706 640.397L173.757 633.726L176.335 619.064L199.622 623.158C203.51 623.842 206.968 626.042 209.234 629.275C211.501 632.509 212.39 636.51 211.706 640.398L211.706 640.397Z" fill="#2F2E41"/>
<path d="M145.17 629.013H157.43L163.262 581.725H145.168L145.17 629.013Z" fill="#A0616A"/>
<path d="M181.07 640.399L142.539 640.401L142.538 625.514L166.182 625.512C170.13 625.512 173.917 627.081 176.709 629.872C179.501 632.664 181.07 636.45 181.07 640.399Z" fill="#2F2E41"/>
<path d="M196.319 612.063C196.128 612.063 195.937 612.052 195.747 612.029L181.317 610.842C180.66 610.765 180.026 610.555 179.452 610.225C178.879 609.895 178.379 609.452 177.982 608.923C177.585 608.393 177.3 607.789 177.144 607.146C176.988 606.503 176.964 605.835 177.074 605.183L191.399 534.502L182.399 487.028C182.326 486.642 182.115 486.296 181.807 486.053C181.498 485.81 181.112 485.687 180.72 485.707C180.328 485.726 179.956 485.887 179.673 486.159C179.39 486.432 179.215 486.797 179.18 487.188L165.919 607.815C165.795 609.086 165.183 610.259 164.211 611.087C163.239 611.914 161.983 612.332 160.709 612.252L147.114 611.746C145.923 611.662 144.803 611.144 143.968 610.291C143.132 609.437 142.638 608.308 142.578 607.115L143.664 461.347L214.145 452.537L219.069 528.578L219.049 528.659L201.058 608.334C200.799 609.396 200.191 610.341 199.332 611.017C198.473 611.693 197.412 612.061 196.319 612.063Z" fill="#2F2E41"/>
<path d="M166.907 295.819C180.472 295.819 191.468 284.823 191.468 271.258C191.468 257.693 180.472 246.697 166.907 246.697C153.342 246.697 142.346 257.693 142.346 271.258C142.346 284.823 153.342 295.819 166.907 295.819Z" fill="#A0616A"/>
<path d="M190.049 472.44C186.208 472.463 182.44 471.385 179.192 469.334C167.292 461.898 153.781 464.853 146.785 467.277C146.091 467.52 145.35 467.603 144.619 467.52C143.888 467.437 143.186 467.189 142.564 466.796C141.949 466.41 141.43 465.89 141.045 465.275C140.66 464.66 140.419 463.966 140.34 463.244L127.619 349.619C125.487 330.581 136.955 312.682 154.887 307.059C155.561 306.848 156.246 306.648 156.942 306.459C162.522 304.946 168.366 304.675 174.063 305.663C179.759 306.652 185.17 308.877 189.914 312.182C194.746 315.523 198.788 319.883 201.754 324.954C204.72 330.025 206.538 335.685 207.081 341.535L217.792 455.922C217.865 456.663 217.765 457.41 217.5 458.105C217.235 458.801 216.812 459.425 216.265 459.929C212.509 463.401 201.611 472.439 190.049 472.44Z" fill="#6C63FF"/>
<path d="M151.308 373.985L122.608 370.829C121.791 370.739 121.003 370.475 120.298 370.053C119.593 369.631 118.987 369.062 118.522 368.385C118.056 367.708 117.742 366.939 117.601 366.13C117.46 365.32 117.494 364.49 117.703 363.695L125.009 335.849C125.224 333.762 125.851 331.738 126.853 329.895C127.855 328.051 129.212 326.425 130.847 325.109C132.481 323.793 134.36 322.814 136.375 322.229C138.39 321.644 140.501 321.464 142.586 321.699C144.671 321.935 146.688 322.581 148.522 323.601C150.356 324.62 151.969 325.994 153.269 327.641C154.569 329.288 155.529 331.176 156.095 333.196C156.661 335.217 156.82 337.33 156.565 339.412L157.65 368.087C157.681 368.908 157.535 369.727 157.221 370.486C156.907 371.246 156.433 371.929 155.832 372.489C155.231 373.048 154.515 373.472 153.735 373.731C152.955 373.989 152.129 374.077 151.312 373.987L151.308 373.985Z" fill="#6C63FF"/>
<path d="M217.675 461.527C218.854 460.489 219.791 459.206 220.42 457.767C221.049 456.328 221.355 454.768 221.317 453.198C221.278 451.628 220.895 450.086 220.196 448.68C219.497 447.273 218.498 446.037 217.269 445.059L210.196 352.217L189.407 356.897L201.607 447.311C200.098 449.484 199.44 452.134 199.755 454.761C200.071 457.387 201.34 459.806 203.321 461.559C205.302 463.312 207.857 464.277 210.502 464.271C213.147 464.265 215.698 463.289 217.671 461.527H217.675Z" fill="#A0616A"/>
<path d="M181.438 368.149C180.836 367.59 180.363 366.907 180.049 366.148C179.735 365.388 179.589 364.57 179.62 363.749L180.705 335.074C180.471 333.002 180.648 330.904 181.224 328.9C181.801 326.897 182.767 325.026 184.067 323.396C185.366 321.765 186.974 320.406 188.799 319.397C190.624 318.388 192.63 317.749 194.702 317.515C196.774 317.281 198.871 317.457 200.875 318.034C202.879 318.611 204.75 319.576 206.38 320.876C208.011 322.176 209.369 323.784 210.378 325.609C211.387 327.433 212.027 329.439 212.261 331.511L219.567 359.357C219.776 360.152 219.81 360.982 219.669 361.792C219.528 362.601 219.214 363.37 218.748 364.047C218.283 364.724 217.677 365.293 216.972 365.715C216.267 366.137 215.479 366.401 214.662 366.491L185.962 369.647C185.145 369.737 184.318 369.65 183.538 369.391C182.758 369.132 182.043 368.708 181.442 368.147L181.438 368.149Z" fill="#6C63FF"/>
<path d="M165.446 296.744C165.008 296.744 164.572 296.693 164.146 296.593L164.021 296.563C142.427 293.263 137.654 280.751 136.607 275.528C135.523 270.12 136.757 264.9 139.547 262.872C138.026 258.072 138.27 253.811 140.274 250.21C143.774 243.93 151.355 241.81 152.374 241.546C158.432 237.077 165.68 240.06 166.999 240.665C178.718 236.33 183.199 239.938 184.007 240.744C189.245 241.685 192.438 243.708 193.498 246.76C195.489 252.491 189.193 259.62 188.924 259.921L188.784 260.077L179.404 260.524C178.514 260.567 177.643 260.796 176.847 261.197C176.051 261.597 175.349 262.161 174.785 262.851C174.221 263.541 173.808 264.342 173.573 265.201C173.339 266.061 173.288 266.96 173.423 267.841C173.677 268.977 173.997 270.098 174.383 271.196C175.983 276.202 177.183 280.479 175.637 282.105C175.286 282.42 174.854 282.629 174.39 282.71C173.926 282.79 173.448 282.738 173.012 282.56C171.545 282.168 170.55 282.25 170.054 282.805C169.284 283.664 169.519 285.84 170.716 288.93C171.092 289.907 171.193 290.969 171.008 291.999C170.824 293.03 170.361 293.991 169.67 294.777C169.15 295.391 168.502 295.885 167.773 296.224C167.043 296.564 166.249 296.741 165.444 296.744H165.446Z" fill="#2F2E41"/>
</svg>
