<svg width="221" height="223" viewBox="0 0 221 223" fill="none" xmlns="http://www.w3.org/2000/svg">
<path d="M99.2307 216.89C135.321 216.89 164.571 215.85 164.571 214.56C164.571 213.27 135.321 212.23 99.2307 212.23C63.1407 212.23 33.8906 213.27 33.8906 214.56C33.8906 215.85 63.1407 216.89 99.2307 216.89Z" fill="#3F3D56"/>
<path d="M68.7706 110.29C81.6806 110.29 92.1506 99.82 92.1506 86.9C92.1506 73.99 81.6806 63.52 68.7706 63.52C55.8606 63.52 45.3906 73.99 45.3906 86.9C45.3906 99.82 55.8606 110.29 68.7706 110.29Z" fill="#FF6CF9"/>
<path d="M41.2196 208.44C52.1096 208.44 60.9296 207.62 60.9296 206.62C60.9296 205.62 52.1096 204.8 41.2196 204.8C30.3396 204.8 21.5195 205.62 21.5195 206.62C21.5195 207.62 30.3396 208.44 41.2196 208.44Z" fill="#3F3D56"/>
<path d="M97.8407 214.85C97.8407 214.85 111.821 171.21 104.121 144.35C96.4107 117.5 90.3107 118.55 90.3107 118.55C90.3107 118.55 79.9206 115.4 67.0106 124.63C54.1106 133.86 50.7007 136.59 43.3507 132.81C36.0007 129.04 34.5706 123.16 16.6506 123.79C16.6506 123.79 26.1407 117.71 35.4707 123.16C44.7907 128.62 51.0607 131.55 60.5607 123.16C70.0607 114.77 83.1407 103.86 95.8707 110.36C95.8707 110.36 86.5507 99.66 83.5007 99.66C80.4607 99.66 66.1207 97.9799 61.4607 92.3199C61.4607 92.3199 54.8207 86.87 42.9907 100.29C31.1607 113.72 34.0307 113.72 23.4607 112.67C12.8807 111.62 4.64062 105.54 4.64062 105.54C4.64062 105.54 17.0006 111.41 24.5306 108.48C32.0606 105.54 38.5106 94.42 45.1406 90.64C51.7806 86.87 55.7207 81.83 64.6807 87.28C64.6807 87.28 60.9207 69.24 53.7507 70.71C46.5807 72.18 57.1506 66.51 57.1506 66.51C57.1506 66.51 55.1807 35.88 51.4207 33.78C47.6507 31.68 49.9807 26.2299 42.9907 25.1799C42.9907 25.1799 51.6007 23.92 53.2107 30.85C54.8207 37.77 65.9407 75.12 65.9407 75.12C65.9407 75.12 72.7506 91.06 80.2806 87.28C87.8006 83.51 77.4106 62.3199 77.4106 62.3199L64.5007 55.39C64.5007 55.39 74.1807 54.97 80.1007 61.48C86.0107 67.98 86.3707 88.96 86.3707 88.96C86.3707 88.96 101.251 91.48 104.831 100.92C104.831 100.92 107.161 92.53 102.681 87.49C101.561 86.24 100.381 84.05 99.2507 81.47C94.9107 71.62 93.4407 60.38 94.8107 49.41C95.4707 44.05 95.8806 38.7999 95.1506 37.5599C93.5406 34.8299 86.7307 18.05 86.1907 13.64C85.6507 9.24002 86.7307 0 86.7307 0C86.7307 0 86.9107 11.33 89.0607 14.9C91.2107 18.47 97.3007 36.09 97.3007 36.09C97.3007 36.09 97.3007 58.33 102.321 69.24C107.341 80.15 117.021 92.32 116.481 100.29V104.91C116.481 104.91 127.241 92.95 126.521 88.96C125.801 84.98 124.911 75.54 118.101 69.87C111.291 64.21 106.801 55.1799 111.641 42.1799C116.481 29.1699 116.481 26.86 116.481 26.86L113.261 43.01C113.261 43.01 111.461 57.49 116.481 62.53C121.501 67.56 128.131 76.79 128.131 76.79L126.701 46.58L131.361 58.54C131.361 58.54 141.401 43.43 153.231 38.4C165.061 33.36 172.411 15.74 172.411 15.74L182.441 6.51001L174.201 18.05C174.201 18.05 171.691 31.68 157.531 41.34C143.371 50.99 134.231 65.2499 133.691 74.0699C133.151 82.8799 132.621 90.64 132.621 90.64C132.621 90.64 159.141 89.59 165.061 75.95C170.971 62.32 171.511 35.25 177.251 30.85C182.981 26.44 193.741 20.98 193.741 20.98L181.731 32.52C181.731 32.52 179.221 41.9699 179.761 48.6799C180.291 55.3899 175.811 61.6899 175.811 61.6899L172.411 73.4399L168.641 83.51C168.641 83.51 184.061 83.93 192.121 94.63C200.191 105.33 220.261 108.48 220.261 108.48L208.971 112.04C208.971 112.04 198.221 107.85 188.001 100.08C177.781 92.32 178.861 85.4 166.131 93.16C153.411 100.92 136.021 107.43 136.021 107.43C136.021 107.43 146.061 101.97 164.161 115.19C182.271 128.41 155.201 112.88 147.131 117.92C139.071 122.95 135.301 116.66 132.081 129.25C128.851 141.84 122.941 176.24 129.751 195.55L136.561 214.85H97.8407Z" fill="#3F3D56"/>
<path opacity="0.1" d="M84.9199 73.0303C85.0199 73.2403 85.12 73.4503 85.23 73.6503C88.44 79.6203 93.2899 85.9703 96.9199 91.8003C93.9899 86.0303 88.8899 79.4303 84.9199 73.0303Z" fill="black"/>
<path opacity="0.1" d="M98.7793 28.8599C99.2493 27.2799 99.2494 26.8398 99.2494 26.8398L98.7793 28.8599Z" fill="black"/>
<path opacity="0.1" d="M20.9102 31.73C21.1502 32.13 21.4402 32.5 21.7802 32.83C21.5302 32.43 21.2402 32.06 20.9102 31.73Z" fill="black"/>
<path opacity="0.1" d="M93.9698 8.54993C93.8798 8.12993 93.7598 7.72984 93.5898 7.33984C93.5898 7.33984 93.7498 7.79993 93.9698 8.54993Z" fill="black"/>
<path d="M72.0207 205.76C73.5207 211.29 78.6407 214.71 78.6407 214.71C78.6407 214.71 81.3408 209.17 79.8408 203.65C78.3508 198.12 73.2308 194.7 73.2308 194.7C73.2308 194.7 70.5307 200.23 72.0207 205.76Z" fill="#3F3D56"/>
<path d="M74.2207 204.57C78.3207 208.57 78.8207 214.7 78.8207 214.7C78.8207 214.7 72.6707 214.37 68.5707 210.38C64.4707 206.38 63.9707 200.24 63.9707 200.24C63.9707 200.24 70.1207 200.58 74.2207 204.57Z" fill="#6C63FF"/>
<path d="M60.62 54.7299C60.27 60.4399 55.9399 64.8198 55.9399 64.8198C55.9399 64.8198 52.1799 59.9399 52.5399 54.2299C52.8999 48.5099 57.23 44.1299 57.23 44.1299C57.23 44.1299 60.98 49.0199 60.62 54.7299Z" fill="#6C63FF"/>
<path d="M30.6195 36.1C35.4595 39.15 37.2295 45.0501 37.2295 45.0501C37.2295 45.0501 31.1394 46 26.2994 42.95C21.4594 39.9 19.6895 33.99 19.6895 33.99C19.6895 33.99 25.7795 33.04 30.6195 36.1Z" fill="#6C63FF"/>
<path d="M10.9299 88.2702C15.7699 91.3202 17.5399 97.2202 17.5399 97.2202C17.5399 97.2202 11.45 98.1702 6.60999 95.1202C1.76999 92.0702 0 86.1702 0 86.1702C0 86.1702 6.08993 85.2202 10.9299 88.2702Z" fill="#6C63FF"/>
<path d="M40.6097 119.95C45.4497 123 47.2197 128.9 47.2197 128.9C47.2197 128.9 41.1397 129.85 36.2897 126.8C31.4497 123.75 29.6797 117.85 29.6797 117.85C29.6797 117.85 35.7697 116.9 40.6097 119.95Z" fill="#6C63FF"/>
<path d="M103.119 28.7903C101.659 34.3303 96.5589 37.7803 96.5589 37.7803C96.5589 37.7803 93.8289 32.2602 95.2889 26.7302C96.7489 21.1902 101.849 17.7402 101.849 17.7402C101.849 17.7402 104.579 23.2603 103.119 28.7903Z" fill="#6C63FF"/>
<path d="M149.19 33.11C147.48 38.57 142.22 41.78 142.22 41.78C142.22 41.78 139.75 36.1399 141.47 30.6799C143.18 25.2199 148.44 22 148.44 22C148.44 22 150.91 27.65 149.19 33.11Z" fill="#6C63FF"/>
<path d="M198.991 91.8098C195.881 96.6098 189.961 98.3098 189.961 98.3098C189.961 98.3098 189.081 92.2099 192.191 87.4099C195.301 82.5999 201.221 80.8999 201.221 80.8999C201.221 80.8999 202.101 86.9998 198.991 91.8098Z" fill="#6C63FF"/>
<path d="M120.81 133.2C120.81 133.2 120.31 135.03 121.31 135.7C122.31 136.37 122.64 139.53 122.64 139.53L120.65 145.02L115.32 146.02L113.32 142.19V136.53C113.32 136.53 113.99 133.7 113.82 132.87C113.65 132.04 120.81 133.2 120.81 133.2Z" fill="#FFB9B9"/>
<path opacity="0.2" d="M120.81 133.2C120.81 133.2 120.31 135.03 121.31 135.7C122.31 136.37 122.64 139.53 122.64 139.53L120.65 145.02L115.32 146.02L113.32 142.19V136.53C113.32 136.53 113.99 133.7 113.82 132.87C113.65 132.04 120.81 133.2 120.81 133.2Z" fill="black"/>
<path d="M126.14 164.67L130.47 165.5C130.47 165.5 130.8 170.33 130.47 171.5C130.14 172.66 129.8 173.99 130.14 174.33C130.47 174.66 128.64 183.15 128.8 183.65C128.97 184.15 129.3 185.65 129.14 186.65C128.97 187.65 128.47 187.31 128.8 188.31C129.14 189.31 129.47 189.48 129.14 190.14C128.8 190.81 127.14 206.96 126.64 207.12C126.14 207.29 121.65 207.46 121.65 207.12C121.65 206.79 123.14 204.29 122.64 203.63C122.15 202.96 122.81 191.64 122.81 191.14C122.81 190.64 123.81 189.81 123.31 189.48C122.81 189.14 122.48 188.81 122.64 188.31C122.81 187.81 123.14 187.65 122.81 187.15C122.48 186.65 122.48 176.66 121.31 176.32C121.31 176.32 119.81 183.65 120.31 185.48C120.81 187.31 120.15 187.98 120.15 187.98L122.48 189.98L119.31 195.97L115.98 192.14C115.98 192.14 115.98 191.14 115.32 190.97C114.65 190.81 114.32 190.64 114.32 190.14C114.32 189.64 113.15 186.48 113.15 186.48C113.15 186.48 109.82 175.99 111.49 170.66C113.15 165.34 113.8 165.51 113.8 165.51L126.14 164.67Z" fill="#2F2E41"/>
<path d="M128.801 199.13L130.641 201.13L129.971 206.63H128.471L126.141 201.46L128.801 199.13Z" fill="#FFB9B9"/>
<path d="M129.97 202.8C129.97 202.8 129.3 204.29 128.8 203.96C128.31 203.63 128.14 203.13 127.39 203.13C126.64 203.13 125.97 203.3 126.14 203.63C126.31 203.96 128.31 207.62 128.31 207.62C128.6 208.25 128.75 208.93 128.75 209.62C128.75 210.31 128.6 210.99 128.31 211.62C127.31 213.78 130.97 214.95 131.64 212.62C132.3 210.29 132.47 207.62 132.3 206.63C132.13 205.63 133.13 200.46 133.13 200.46C133.13 200.46 130.44 199.23 129.62 199.18C129.62 199.18 130.3 202.13 129.97 202.8Z" fill="#2F2E41"/>
<path d="M125.47 206.46L126.14 208.46C126.14 208.46 126.14 210.45 126.81 211.45C127.47 212.45 128.14 214.62 125.47 214.78C122.81 214.95 121.65 213.95 121.65 213.95C121.65 213.95 122.15 212.62 121.65 212.12C121.15 211.62 121.65 210.62 121.65 210.62L122.14 206.63L125.47 206.46Z" fill="#2F2E41"/>
<path d="M120.98 189.81H122.48L129.97 199.63C129.97 199.63 128.64 202.8 126.64 203.13C126.64 203.13 126.31 202.96 124.81 201.96C123.31 200.96 119.31 195.97 119.31 195.97L118.82 193.14L120.98 189.81Z" fill="#2F2E41"/>
<path d="M117.32 135.37C120.26 135.37 122.64 132.98 122.64 130.04C122.64 127.1 120.26 124.71 117.32 124.71C114.37 124.71 111.99 127.1 111.99 130.04C111.99 132.98 114.37 135.37 117.32 135.37Z" fill="#FFB9B9"/>
<path d="M123.81 136.87L122.15 136.2C122.15 136.2 121.98 142.03 118.82 142.03C115.65 142.03 112.32 141.19 112.32 139.53C112.32 137.86 109.66 142.53 109.66 142.53C109.66 142.53 112.16 159.18 111.99 159.34C111.82 159.51 113.82 168.33 113.82 168.33C113.82 168.33 122.31 168.67 125.14 167.5C127.97 166.33 128.8 164.17 128.8 164.17L127.64 149.52L125.31 138.2L123.81 136.87Z" fill="#6C63FF"/>
<path d="M120.98 135.37C120.98 135.37 121.65 134.7 122.64 135.37C123.64 136.03 129.8 137.53 129.8 138.03V144.36C129.8 144.36 129.97 145.36 129.47 146.02C128.97 146.69 127.81 149.19 128.47 150.35C129.14 151.52 131.64 165 131.14 166.67C130.64 168.33 129.3 169.83 129.3 169.83C129.3 169.83 122.15 154.68 122.15 150.35C122.15 146.02 122.21 140.71 122.21 140.71L120.98 135.37Z" fill="#575A89"/>
<path d="M128.311 138.2H129.801C129.801 138.2 135.461 149.02 135.461 151.18C135.461 153.35 131.801 165.34 131.471 165.5C131.141 165.67 130.141 163.67 130.141 163.67L129.301 157.01C129.301 157.01 130.971 153.01 130.471 152.35C129.971 151.68 127.471 146.52 127.471 146.52L128.311 138.2Z" fill="#575A89"/>
<path d="M113.569 135.37C113.569 135.37 111.659 136.7 111.319 137.2C110.989 137.7 105.999 140.53 105.829 141.19C105.659 141.86 109.659 147.52 109.659 147.52C109.659 147.52 111.319 156.84 111.319 157.51C111.319 158.18 111.99 169.5 111.99 169.5C111.99 169.5 118.819 171.5 118.819 170.33C118.819 169.16 118.98 152.52 117.98 148.85C116.98 145.19 113.569 135.37 113.569 135.37Z" fill="#575A89"/>
<path d="M114.65 169.83C114.65 169.83 120.31 177.49 117.32 177.32C114.32 177.16 112.32 170.66 112.32 170.66L114.65 169.83Z" fill="#FFB9B9"/>
<path d="M107.829 140.69L105.829 141.19C105.829 141.19 104.159 155.85 105.159 157.84C106.159 159.84 111.489 172.83 111.489 172.33C111.489 171.83 116.179 170.94 115.999 170.47C115.819 170 114.819 168 114.489 167.33C114.149 166.67 113.649 165.83 113.819 165C113.989 164.17 111.989 160.61 111.989 160.61C111.989 160.61 111.489 158.51 111.319 157.51C111.159 156.51 109.659 145.52 109.659 145.52L107.829 140.69Z" fill="#575A89"/>
<path d="M122.541 125.91C122.441 125.6 122.221 125.34 121.941 125.17C121.951 124.84 121.911 124.51 121.811 124.2C121.481 123.27 120.691 123.33 119.951 122.92C119.631 122.74 119.651 122.59 119.481 122.29C119.261 121.91 118.931 121.59 118.531 121.38C118.081 121.06 117.551 120.85 116.991 120.77C115.811 120.69 114.911 121.74 113.781 122.08C113.281 122.22 112.741 122.23 112.241 122.37C111.741 122.51 111.241 122.84 111.171 123.33C111.131 123.56 111.191 123.79 111.161 124.01C111.091 124.46 110.671 124.77 110.391 125.14C109.781 125.95 109.851 127.1 110.341 127.98C110.451 128.16 110.561 128.34 110.701 128.5C110.741 128.92 110.871 129.33 111.071 129.7C111.561 130.58 112.411 131.24 113.301 131.79C113.221 131.5 113.181 131.2 113.171 130.9C113.151 130.8 113.171 130.69 113.211 130.6C113.301 130.41 113.561 130.36 113.761 130.25C113.951 130.12 114.111 129.95 114.211 129.75C114.311 129.55 114.361 129.32 114.351 129.1C114.361 128.65 114.261 128.21 114.311 127.76C114.311 127.66 114.341 127.56 114.381 127.47C114.431 127.37 114.491 127.29 114.571 127.23C114.731 127.14 114.901 127.11 115.071 127.11C115.921 127.08 116.801 127.07 117.541 126.69C117.781 126.54 118.041 126.42 118.311 126.33C118.941 126.17 119.591 126.59 119.951 127.1C120.321 127.61 120.501 128.22 120.831 128.74C121.171 129.27 121.751 129.74 122.401 129.68C122.441 129.68 122.471 129.67 122.511 129.66C122.541 129.64 122.571 129.62 122.591 129.6C122.621 129.55 122.631 129.49 122.631 129.44L122.671 127.1C122.701 126.7 122.651 126.3 122.541 125.91Z" fill="#2F2E41"/>
<path d="M185.561 222.43C203.651 222.43 218.311 221.39 218.311 220.1C218.311 218.81 203.651 217.77 185.561 217.77C167.471 217.77 152.801 218.81 152.801 220.1C152.801 221.39 167.471 222.43 185.561 222.43Z" fill="#3F3D56"/>
<path d="M174.091 214.63C174.091 214.63 171.301 216.99 169.821 216.84C168.351 216.69 165.561 216.69 166.731 218.31C167.911 219.93 172.771 220.81 174.831 220.96C176.891 221.11 181.451 221.25 181.161 220.37C180.861 219.49 180.571 215.37 179.391 215.07C178.211 214.78 174.091 214.63 174.091 214.63Z" fill="#575A89"/>
<path d="M190.14 212.32C190.14 212.32 188.08 215.34 186.62 215.59C185.17 215.85 182.47 216.6 184.04 217.84C185.61 219.08 190.53 218.63 192.55 218.22C194.58 217.81 199.01 216.72 198.49 215.95C197.97 215.18 196.58 211.29 195.36 211.32C194.15 211.35 190.14 212.32 190.14 212.32Z" fill="#575A89"/>
<path d="M172.45 169.13C172.45 169.13 170.56 182.1 171 184.46C171.44 186.81 171.74 190.49 171.74 190.49C171.74 190.49 171.44 193.58 171.74 195.06C172.03 196.53 173.8 210.51 173.8 210.8C173.8 211.1 173.5 211.98 173.8 212.72C174.09 213.45 174.68 212.87 173.8 214.04C172.91 215.22 173.5 215.51 173.65 215.51C173.8 215.51 179.54 216.1 179.83 215.51C180.13 214.93 179.68 214.78 179.83 214.04C179.98 213.31 180.13 213.16 180.42 213.01C180.71 212.87 181.3 213.16 180.86 212.42C180.42 211.69 179.39 210.8 179.68 210.36C179.98 209.92 179.54 206.68 179.54 206.68C179.54 206.68 179.24 199.47 179.1 195.06C178.95 190.64 180.42 186.08 180.42 186.08C180.6 189.69 181.95 193.15 184.25 195.94C188.07 200.5 189.99 209.04 189.99 209.04C189.99 209.04 190.87 210.36 190.43 211.54C189.99 212.72 188.66 211.98 189.99 212.72C191.31 213.45 195.87 212.42 196.32 211.98C196.76 211.54 195.73 210.95 196.02 209.77C196.32 208.6 197.49 208.89 196.46 208.3C195.43 207.71 195.14 207.86 195.14 207.27C195.14 206.68 192.49 193.88 188.37 190.2L188.07 176.81C188.07 176.81 191.75 167.39 187.93 166.5C184.1 165.62 172.45 169.13 172.45 169.13Z" fill="#2F2E41"/>
<path d="M175.119 134.27C175.119 134.27 177.619 140.45 177.039 141.33C176.449 142.22 184.249 138.39 184.249 138.39C184.249 138.39 181.749 132.21 181.749 131.47C181.749 130.74 175.119 134.27 175.119 134.27Z" fill="#A0616A"/>
<path d="M176.96 135.81C179.97 135.81 182.41 133.38 182.41 130.37C182.41 127.36 179.97 124.92 176.96 124.92C173.95 124.92 171.52 127.36 171.52 130.37C171.52 133.38 173.95 135.81 176.96 135.81Z" fill="#A0616A"/>
<path d="M184.25 135.89C184.25 135.89 180.42 135.45 178.51 137.8C176.59 140.16 176.3 140.75 176.3 140.75C176.3 140.75 171.74 148.1 172.62 151.78C172.84 152.12 173.03 152.46 173.21 152.81C173.5 153.4 173.5 161.65 173.21 162.97C172.91 164.29 172.62 164.74 172.91 166.65C173.21 168.56 170.56 171.65 173.65 172.24C176.74 172.83 179.1 172.39 180.13 171.07C181.16 169.74 180.27 168.86 183.51 168.86C185.49 168.82 187.39 168.03 188.81 166.65C188.81 166.65 187.19 164.88 187.78 164.59C188.37 164.29 187.78 163.56 187.49 162.82C187.19 162.09 187.19 161.5 187.63 161.5C188.07 161.5 187.78 161.2 187.49 160.47C187.19 159.73 192.64 147.07 189.4 143.39C186.16 139.72 184.54 137.65 184.54 137.65C184.54 137.65 185.13 135.45 184.25 135.89Z" fill="#6C63FF"/>
<path d="M176.38 149.87V156.35L171.67 171.95C171.67 171.95 168.58 180.04 171.67 180.04C174.76 180.04 174.6 172.32 174.6 172.32L181.24 160.62C181.24 160.62 183.89 151.34 183.59 150.61C183.3 149.87 176.38 149.87 176.38 149.87Z" fill="#A0616A"/>
<path d="M178.879 140.3C178.879 140.3 174.469 142.07 175.639 146.78C176.819 151.49 175.639 151.34 175.639 151.34C175.639 151.34 181.679 150.75 183.589 152.08L184.029 150.31C184.029 150.31 185.799 140.16 178.879 140.3Z" fill="#6C63FF"/>
<path d="M175.62 126.28C175.28 126.4 174.92 126.44 174.56 126.38C174.21 126.32 173.87 126.18 173.58 125.96C173.3 125.74 173.11 125.42 173.02 125.07C172.94 124.72 172.97 124.35 173.12 124.02C173.4 123.47 174 123.17 174.58 122.94C175.86 122.44 177.2 122.14 178.57 122.04C179.22 121.99 179.9 122 180.48 122.3C180.77 122.45 181.02 122.66 181.3 122.81C181.83 123.09 182.44 123.15 183 123.33C183.58 123.52 184.11 123.83 184.56 124.25C185.01 124.66 185.36 125.16 185.6 125.72C185.75 126.1 185.86 126.5 185.92 126.91C186.09 128.02 185.97 129.16 185.58 130.21C184.95 131.88 183.63 133.34 183.56 135.13C182.75 134.54 182.46 133.49 181.81 132.73C181.33 132.17 180.67 131.79 179.95 131.65C179.75 131.64 179.56 131.57 179.4 131.45C179.28 131.32 179.21 131.15 179.19 130.98L178.64 128.37C178.53 127.85 178.39 127.27 177.95 126.95C177.68 126.77 177.37 126.66 177.05 126.63C176.29 126.5 175.53 126.43 174.75 126.42" fill="#2F2E41"/>
</svg>
